<svg width="22" height="27" viewBox="0 0 22 27" fill="none" xmlns="http://www.w3.org/2000/svg">
<path d="M7.06364 6.14329C7.06364 6.14329 7.09142 6.17233 7.14697 6.2304C7.20252 6.28848 7.3111 6.31751 7.4727 6.31751C7.6343 6.31751 7.77317 6.25944 7.88932 6.14329C8.00547 6.02714 8.06355 5.88826 8.06355 5.72666C8.06355 5.56506 8.00547 5.42619 7.88932 5.31004C7.77317 5.19389 7.6343 5.13581 7.4727 5.13581C7.3111 5.13581 7.17475 5.19389 7.06364 5.31004C6.95254 5.42619 6.89699 5.56506 6.89699 5.72666C6.89699 5.88826 6.95254 6.02714 7.06364 6.14329ZM13.4494 6.14329C13.4494 6.14329 13.4784 6.17233 13.5365 6.2304C13.5946 6.28848 13.7044 6.31751 13.866 6.31751C14.0276 6.31751 14.164 6.25944 14.2751 6.14329C14.3862 6.02714 14.4417 5.88826 14.4417 5.72666C14.4417 5.56506 14.3862 5.42619 14.2751 5.31004C14.164 5.19389 14.0276 5.13581 13.866 5.13581C13.7044 5.13581 13.5655 5.19389 13.4494 5.31004C13.3332 5.42619 13.2752 5.56506 13.2752 5.72666C13.2752 5.88826 13.3332 6.02714 13.4494 6.14329ZM1.56418 9.10512C1.98838 9.10512 2.35198 9.25662 2.65498 9.55962C2.95798 9.86263 3.10948 10.2262 3.10948 10.6504V17.1649C3.10948 17.5992 2.96051 17.9679 2.66256 18.2709C2.36461 18.5739 1.99848 18.7254 1.56418 18.7254C1.12988 18.7254 0.761225 18.5739 0.458225 18.2709C0.155224 17.9679 0.00372314 17.5992 0.00372314 17.1649V10.6504C0.00372314 10.2262 0.155224 9.86263 0.458225 9.55962C0.761225 9.25662 1.12988 9.10512 1.56418 9.10512ZM17.6232 9.39297V19.4829C17.6232 19.9475 17.4616 20.3414 17.1384 20.6646C16.8152 20.9878 16.4264 21.1494 15.9719 21.1494H14.8356V24.5885C14.8356 25.0228 14.6841 25.3914 14.3811 25.6944C14.0781 25.9974 13.7095 26.1489 13.2752 26.1489C12.8409 26.1489 12.4722 25.9974 12.1692 25.6944C11.8662 25.3914 11.7147 25.0228 11.7147 24.5885V21.1494H9.624V24.5885C9.624 25.0228 9.4725 25.3914 9.1695 25.6944C8.8665 25.9974 8.49785 26.1489 8.06355 26.1489C7.63935 26.1489 7.27575 25.9974 6.97274 25.6944C6.66974 25.3914 6.51824 25.0228 6.51824 24.5885L6.50309 21.1494H5.38199C4.91739 21.1494 4.52349 20.9878 4.20029 20.6646C3.87709 20.3414 3.71548 19.9475 3.71548 19.4829V9.39297H17.6232ZM14.1084 3.2572C15.1891 3.81271 16.0527 4.58788 16.6991 5.58274C17.3455 6.57759 17.6687 7.66587 17.6687 8.84757H3.65488C3.65488 7.66587 3.97809 6.57759 4.62449 5.58274C5.27089 4.58788 6.13949 3.81271 7.2303 3.2572L6.15464 1.27255C6.08394 1.14125 6.10919 1.04025 6.23039 0.969547C6.36169 0.908947 6.46269 0.939247 6.53339 1.06045L7.6242 3.06026C8.5837 2.63605 9.59875 2.42395 10.6694 2.42395C11.74 2.42395 12.755 2.63605 13.7145 3.06026L14.8053 1.06045C14.876 0.939247 14.977 0.908947 15.1083 0.969547C15.2295 1.04025 15.2548 1.14125 15.1841 1.27255L14.1084 3.2572ZM21.335 10.6504V17.1649C21.335 17.5992 21.1835 17.9679 20.8805 18.2709C20.5775 18.5739 20.2088 18.7254 19.7745 18.7254C19.3503 18.7254 18.9867 18.5739 18.6837 18.2709C18.3807 17.9679 18.2292 17.5992 18.2292 17.1649V10.6504C18.2292 10.2161 18.3807 9.85 18.6837 9.55205C18.9867 9.2541 19.3503 9.10512 19.7745 9.10512C20.2088 9.10512 20.5775 9.2541 20.8805 9.55205C21.1835 9.85 21.335 10.2161 21.335 10.6504Z" fill="#FB5C46"/>
</svg>
