<svg width="29" height="33" viewBox="0 0 29 33" fill="none" xmlns="http://www.w3.org/2000/svg">
<path fill-rule="evenodd" clip-rule="evenodd" d="M9.15524 12.853L14.04 10.0977V4.91724C13.4724 4.81529 12.9584 4.51486 12.5881 4.0686L4.76243 8.64209C4.8555 8.90527 4.90602 9.18726 4.90602 9.48267C4.90602 9.72974 4.87146 9.96606 4.80498 10.1917L9.15524 12.853ZM12.1733 3.35156C12.0695 3.07252 12.0163 2.77685 12.0164 2.47876C12.0164 1.79395 12.2903 1.17358 12.7344 0.725098C13.1784 0.276611 13.7927 0 14.4708 0C15.1488 0 15.7631 0.276611 16.2071 0.725098C16.4353 0.955235 16.6162 1.22863 16.7394 1.52958C16.8626 1.83053 16.9257 2.1531 16.9251 2.47876C16.9251 2.77954 16.8719 3.06689 16.7762 3.33276L24.6391 7.92505C24.6949 7.85791 24.7508 7.79077 24.8119 7.729C25.0398 7.49859 25.3105 7.31592 25.6085 7.19148C25.9065 7.06705 26.2259 7.0033 26.5483 7.00391C27.2264 7.00391 27.8406 7.28052 28.2847 7.729C28.5129 7.95914 28.6937 8.23254 28.8169 8.53349C28.9401 8.83444 29.0033 9.15701 29.0027 9.48267C29.0027 10.1675 28.7288 10.7852 28.2847 11.2336C27.9031 11.6195 27.4056 11.867 26.8701 11.9373V21.0439C27.4205 21.1165 27.9124 21.3716 28.2847 21.7476C28.7288 22.196 29.0027 22.8164 29.0027 23.4985C29.0029 23.8241 28.9397 24.1466 28.8164 24.4474C28.6932 24.7483 28.5124 25.0217 28.2844 25.2519C28.0565 25.4821 27.7858 25.6647 27.4879 25.7892C27.19 25.9137 26.8707 25.9776 26.5483 25.9773C26.1843 25.9779 25.8248 25.8964 25.4959 25.739C25.167 25.5815 24.877 25.3519 24.6471 25.0669L16.7735 29.6646C16.8693 29.9304 16.9224 30.2178 16.9224 30.5186C16.9224 31.2034 16.6485 31.8237 16.2045 32.2722C15.9766 32.5026 15.7059 32.6853 15.4079 32.8097C15.1099 32.9342 14.7905 32.9979 14.4681 32.9973C13.79 32.9973 13.1758 32.7207 12.7317 32.2722C12.2876 31.8237 12.0138 31.2034 12.0138 30.5186C12.0138 30.2124 12.0696 29.917 12.1706 29.6458L4.34762 25.0776C4.11746 25.3604 3.82799 25.5881 3.50012 25.7441C3.17224 25.9002 2.81414 25.9807 2.45169 25.98C1.77362 25.98 1.15937 25.7034 0.715303 25.2549C0.273894 24.8064 8.46537e-06 24.186 8.46537e-06 23.5012C8.46537e-06 22.8164 0.273894 22.1987 0.717962 21.7502C1.09528 21.3688 1.58532 21.1218 2.11398 21.0466V11.9346C1.58496 11.8606 1.09456 11.6134 0.717962 11.231C0.489648 11.0015 0.308641 10.7286 0.185407 10.4281C0.0621738 10.1275 -0.000840501 9.80528 8.46537e-06 9.47998C8.46537e-06 8.79517 0.273894 8.1748 0.717962 7.72632C0.945832 7.4959 1.21653 7.31323 1.51452 7.18879C1.8125 7.06436 2.13189 7.00061 2.45435 7.00122C2.819 7.00057 3.17919 7.08222 3.50859 7.2402C3.838 7.39818 4.12829 7.62849 4.35825 7.91431L12.1733 3.35156ZM16.364 4.05249C15.9913 4.51142 15.4674 4.81936 14.8882 4.91992V10.0977L19.7623 12.9497L24.2429 10.334C24.1445 10.0681 24.094 9.77808 24.094 9.47998C24.094 9.18994 24.1445 8.90796 24.2349 8.65015L16.364 4.05249ZM26.1202 11.9211C25.6243 11.834 25.1672 11.5939 24.8119 11.2336C24.7614 11.1826 24.7136 11.1316 24.6684 11.0752L20.1958 13.6855V19.2661L24.687 21.8845C24.7269 21.8389 24.7667 21.7932 24.8093 21.7502C25.1649 21.3905 25.6218 21.1504 26.1176 21.0627V11.9211H26.1202ZM24.2402 24.3472C24.1445 24.084 24.094 23.7993 24.094 23.5039C24.094 23.1924 24.1498 22.8943 24.2562 22.6177L19.9112 20.0852L14.8882 23.0339V28.0801C15.4674 28.1806 15.9913 28.4886 16.364 28.9475L24.2402 24.3472ZM12.5881 28.9287C12.9584 28.4825 13.4724 28.182 14.04 28.0801V23.0098L8.99836 20.0557L4.71989 22.5505C4.83955 22.8433 4.90868 23.1655 4.90868 23.5039C4.90868 23.8047 4.8555 24.092 4.75977 24.3579L12.5881 28.9287ZM2.86119 21.0574C3.37439 21.1433 3.83441 21.3931 4.18807 21.7502C4.21466 21.7771 4.23859 21.804 4.26252 21.8308L8.62077 19.2903V13.5244L4.42473 10.957C4.35293 11.0564 4.27316 11.1477 4.18807 11.2336C3.82753 11.5979 3.36388 11.84 2.86119 11.9265V21.0574ZM2.457 11.1021C2.46764 11.1021 2.47828 11.0994 2.48891 11.0994H2.51019C2.91653 11.0865 3.30268 10.9174 3.58978 10.6267C3.73913 10.4763 3.85759 10.2975 3.93836 10.1008C4.01913 9.90397 4.06062 9.69301 4.06043 9.47998C4.06043 9.03149 3.87962 8.62598 3.58978 8.33325C3.29993 8.04053 2.89841 7.85791 2.45435 7.85791C2.01028 7.85791 1.60876 8.04053 1.31892 8.33325C1.16956 8.48368 1.0511 8.66241 0.970329 8.8592C0.88956 9.05599 0.848075 9.26695 0.848257 9.47998C0.848257 9.92847 1.02908 10.334 1.31892 10.6267C1.46823 10.7778 1.64565 10.8976 1.84097 10.9791C2.03629 11.0607 2.24565 11.1025 2.457 11.1021ZM15.6035 29.3772C15.4546 29.2264 15.2776 29.1067 15.0828 29.0251C14.8879 28.9436 14.679 28.9017 14.4681 28.9019C14.024 28.9019 13.6225 29.0845 13.3327 29.3772C13.0428 29.6699 12.862 30.0754 12.862 30.5239C12.862 30.9724 13.0428 31.3779 13.3327 31.6707C13.6225 31.9634 14.024 32.146 14.4681 32.146C14.9122 32.146 15.3137 31.9634 15.6035 31.6707C15.8934 31.3779 16.0742 30.9724 16.0742 30.5239C16.0742 30.0754 15.896 29.6699 15.6035 29.3772ZM15.6035 1.33203C15.4546 1.18119 15.2776 1.06155 15.0828 0.979976C14.8879 0.898403 14.679 0.856506 14.4681 0.856689C14.024 0.856689 13.6225 1.03931 13.3327 1.33203C13.0428 1.62476 12.862 2.03027 12.862 2.47876C12.862 2.92725 13.0428 3.33276 13.3327 3.62549C13.4816 3.77633 13.6586 3.89597 13.8534 3.97754C14.0483 4.05912 14.2572 4.10101 14.4681 4.10083C14.9122 4.10083 15.3137 3.91821 15.6035 3.62549C15.7529 3.47507 15.8713 3.29633 15.9521 3.09954C16.0329 2.90275 16.0744 2.69179 16.0742 2.47876C16.0742 2.03027 15.896 1.62476 15.6035 1.33203ZM27.6811 22.3572C27.5322 22.2063 27.3552 22.0867 27.1603 22.0051C26.9655 21.9235 26.7566 21.8817 26.5457 21.8818C26.1016 21.8818 25.7001 22.0645 25.4102 22.3572C25.2609 22.5076 25.1424 22.6863 25.0617 22.8831C24.9809 23.0799 24.9394 23.2909 24.9396 23.5039C24.9396 23.9524 25.1204 24.3579 25.4102 24.6506C25.5592 24.8015 25.7362 24.9211 25.931 25.0027C26.1259 25.0843 26.3347 25.1262 26.5457 25.126C26.9897 25.126 27.3913 24.9434 27.6811 24.6506C27.8305 24.5002 27.9489 24.3215 28.0297 24.1247C28.1105 23.9279 28.1519 23.7169 28.1518 23.5039C28.1518 23.0554 27.9736 22.6499 27.6811 22.3572ZM3.58978 22.3572C3.29993 22.0645 2.89841 21.8818 2.45435 21.8818C2.01028 21.8818 1.60876 22.0645 1.31892 22.3572C1.16956 22.5076 1.0511 22.6863 0.970329 22.8831C0.88956 23.0799 0.848075 23.2909 0.848257 23.5039C0.848257 23.9524 1.02908 24.3579 1.31892 24.6506C1.60876 24.9434 2.01028 25.126 2.45435 25.126C2.89841 25.126 3.29993 24.9434 3.58978 24.6506C3.73913 24.5002 3.85759 24.3215 3.93836 24.1247C4.01913 23.9279 4.06062 23.7169 4.06043 23.5039C4.05958 23.0739 3.89039 22.6617 3.58978 22.3572ZM25.1151 10.2131C25.1364 10.2346 25.1523 10.2615 25.1683 10.2883C25.1842 10.3152 25.1949 10.342 25.2055 10.3716C25.2666 10.4629 25.3358 10.5488 25.4102 10.6267C25.5592 10.7775 25.7362 10.8972 25.931 10.9788C26.1259 11.0603 26.3347 11.1022 26.5457 11.1021C26.9897 11.1021 27.3913 10.9194 27.6811 10.6267C27.8305 10.4763 27.9489 10.2975 28.0297 10.1008C28.1105 9.90397 28.1519 9.69301 28.1518 9.47998C28.1518 9.03149 27.9709 8.62598 27.6811 8.33325C27.5322 8.18241 27.3552 8.06277 27.1603 7.9812C26.9655 7.89962 26.7566 7.85773 26.5457 7.85791C26.1016 7.85791 25.7001 8.04053 25.4102 8.33325C25.2609 8.48368 25.1424 8.66241 25.0617 8.8592C24.9809 9.05599 24.9394 9.26695 24.9396 9.47998C24.9422 9.74585 25.0061 9.99292 25.1151 10.2131ZM9.41583 19.199C9.47625 19.2646 9.51604 19.3468 9.53017 19.4353L14.0852 22.1396V16.8008L9.41583 13.9944V19.199ZM19.4034 14.0669L14.8803 16.8035V22.145L19.4034 19.446V14.0669ZM14.4628 10.7395L10.0487 13.4062L14.4867 16.1052L18.7971 13.4626L14.4628 10.7395Z" fill="#FB5C46"/>
</svg>
