<svg width="473" height="335" viewBox="0 0 473 335" fill="none" xmlns="http://www.w3.org/2000/svg">
<rect width="473" height="335" rx="5.60694" fill="#343741"/>
<rect y="281" width="473" height="54" fill="#F95C46"/>
<g filter="url(#filter0_d_364_278)">
<path d="M191.564 304.972L193.52 294.617H196.128L198.058 304.972H195.949L195.604 302.786H194.083L193.725 304.972H191.564ZM194.287 301.418H195.387L194.837 297.378L194.287 301.418ZM199.104 304.972V294.617H201.955C202.653 294.617 203.259 294.693 203.77 294.847C204.281 295 204.678 295.277 204.959 295.678C205.249 296.07 205.393 296.628 205.393 297.353C205.393 297.779 205.359 298.158 205.291 298.49C205.223 298.823 205.095 299.112 204.908 299.36C204.729 299.598 204.469 299.798 204.128 299.96L205.547 304.972H203.182L202.044 300.331H201.392V304.972H199.104ZM201.392 299.014H202.031C202.355 299.014 202.607 298.959 202.786 298.848C202.965 298.729 203.088 298.563 203.156 298.35C203.233 298.128 203.271 297.864 203.271 297.557C203.271 297.114 203.19 296.769 203.028 296.522C202.867 296.274 202.568 296.151 202.134 296.151H201.392V299.014ZM206.731 304.972L206.91 294.617H209.364L210.502 300.638L211.729 294.617H214.094L214.273 304.972H212.65L212.458 298.081L211.256 304.972H209.812L208.533 298.03L208.38 304.972H206.731ZM215.783 304.972V294.617H218.071V304.972H215.783ZM222.364 305.125C221.716 305.125 221.175 305.01 220.74 304.78C220.306 304.55 219.978 304.196 219.756 303.719C219.534 303.233 219.411 302.607 219.385 301.84L221.341 301.546C221.35 301.989 221.388 302.347 221.456 302.619C221.533 302.892 221.635 303.088 221.763 303.208C221.899 303.327 222.061 303.386 222.249 303.386C222.487 303.386 222.641 303.306 222.709 303.144C222.786 302.982 222.824 302.811 222.824 302.632C222.824 302.206 222.722 301.848 222.517 301.558C222.313 301.26 222.036 300.962 221.686 300.664L220.791 299.884C220.399 299.551 220.067 299.176 219.794 298.759C219.53 298.333 219.398 297.808 219.398 297.186C219.398 296.309 219.658 295.639 220.178 295.179C220.698 294.711 221.405 294.476 222.3 294.476C222.854 294.476 223.297 294.57 223.629 294.757C223.97 294.945 224.226 295.192 224.396 295.499C224.575 295.797 224.695 296.117 224.754 296.458C224.823 296.79 224.861 297.11 224.869 297.416L222.901 297.659C222.892 297.353 222.871 297.088 222.837 296.867C222.811 296.637 222.752 296.462 222.658 296.343C222.564 296.215 222.419 296.151 222.223 296.151C222.01 296.151 221.853 296.24 221.75 296.419C221.656 296.598 221.61 296.777 221.61 296.956C221.61 297.34 221.699 297.655 221.878 297.902C222.066 298.141 222.308 298.392 222.607 298.656L223.463 299.411C223.915 299.794 224.294 300.229 224.601 300.715C224.916 301.2 225.074 301.801 225.074 302.517C225.074 303.003 224.963 303.446 224.742 303.847C224.52 304.239 224.205 304.55 223.796 304.78C223.395 305.01 222.918 305.125 222.364 305.125ZM226.22 304.972V294.617H228.509V298.81H230.107V294.617H232.408V304.972H230.107V300.446H228.509V304.972H226.22ZM236.757 304.972L238.713 294.617H241.321L243.251 304.972H241.142L240.797 302.786H239.275L238.917 304.972H236.757ZM239.48 301.418H240.579L240.03 297.378L239.48 301.418ZM244.681 304.972V296.317H243.121V294.617H248.528V296.317H246.982V304.972H244.681ZM250.373 304.972V296.317H248.814V294.617H254.221V296.317H252.674V304.972H250.373ZM254.172 304.972L256.128 294.617H258.736L260.667 304.972H258.557L258.212 302.786H256.691L256.333 304.972H254.172ZM256.895 301.418H257.995L257.445 297.378L256.895 301.418Z" fill="white"/>
</g>
<g filter="url(#filter1_d_364_278)">
<path d="M219.704 323.033C218.92 323.033 218.298 322.893 217.838 322.611C217.386 322.322 217.067 321.921 216.879 321.41C216.692 320.89 216.598 320.281 216.598 319.582V315.849C216.598 315.133 216.692 314.519 216.879 314.008C217.067 313.488 217.386 313.087 217.838 312.806C218.298 312.525 218.92 312.384 219.704 312.384C220.471 312.384 221.068 312.512 221.494 312.768C221.929 313.015 222.236 313.364 222.415 313.816C222.594 314.268 222.683 314.788 222.683 315.376V316.271H220.446V315.235C220.446 315.031 220.433 314.835 220.408 314.647C220.39 314.46 220.331 314.306 220.229 314.187C220.126 314.059 219.952 313.995 219.704 313.995C219.466 313.995 219.287 314.059 219.168 314.187C219.057 314.315 218.984 314.477 218.95 314.673C218.925 314.86 218.912 315.06 218.912 315.274V320.144C218.912 320.374 218.929 320.587 218.963 320.783C219.006 320.971 219.082 321.124 219.193 321.244C219.312 321.354 219.483 321.41 219.704 321.41C219.943 321.41 220.114 321.35 220.216 321.231C220.318 321.103 220.382 320.941 220.408 320.745C220.433 320.549 220.446 320.349 220.446 320.144V319.058H222.683V319.952C222.683 320.54 222.594 321.069 222.415 321.538C222.244 321.998 221.942 322.364 221.507 322.637C221.081 322.901 220.48 323.033 219.704 323.033ZM223.942 322.88V312.525H228.595V314.085H226.23V316.654H228.033V318.239H226.23V321.333H228.621V322.88H223.942ZM232.626 323.033C231.85 323.033 231.236 322.897 230.785 322.624C230.333 322.351 230.009 321.959 229.813 321.448C229.617 320.937 229.519 320.327 229.519 319.62V315.772C229.519 315.056 229.617 314.447 229.813 313.944C230.009 313.441 230.333 313.058 230.785 312.793C231.236 312.521 231.85 312.384 232.626 312.384C233.41 312.384 234.028 312.521 234.479 312.793C234.939 313.058 235.268 313.441 235.464 313.944C235.66 314.447 235.758 315.056 235.758 315.772V319.62C235.758 320.327 235.66 320.937 235.464 321.448C235.268 321.959 234.939 322.351 234.479 322.624C234.028 322.897 233.41 323.033 232.626 323.033ZM232.626 321.41C232.864 321.41 233.039 321.35 233.15 321.231C233.261 321.111 233.333 320.958 233.367 320.771C233.401 320.583 233.418 320.391 233.418 320.195V315.21C233.418 315.005 233.401 314.813 233.367 314.634C233.333 314.447 233.261 314.293 233.15 314.174C233.039 314.055 232.864 313.995 232.626 313.995C232.404 313.995 232.238 314.055 232.127 314.174C232.016 314.293 231.944 314.447 231.91 314.634C231.876 314.813 231.859 315.005 231.859 315.21V320.195C231.859 320.391 231.871 320.583 231.897 320.771C231.931 320.958 231.999 321.111 232.101 321.231C232.212 321.35 232.387 321.41 232.626 321.41Z" fill="white"/>
</g>
<defs>
<filter id="filter0_d_364_278" x="191.003" y="293.915" width="70.2239" height="11.7703" filterUnits="userSpaceOnUse" color-interpolation-filters="sRGB">
<feFlood flood-opacity="0" result="BackgroundImageFix"/>
<feColorMatrix in="SourceAlpha" type="matrix" values="0 0 0 0 0 0 0 0 0 0 0 0 0 0 0 0 0 0 127 0" result="hardAlpha"/>
<feOffset/>
<feGaussianBlur stdDeviation="0.280347"/>
<feComposite in2="hardAlpha" operator="out"/>
<feColorMatrix type="matrix" values="0 0 0 0 1 0 0 0 0 1 0 0 0 0 1 0 0 0 1 0"/>
<feBlend mode="normal" in2="BackgroundImageFix" result="effect1_dropShadow_364_278"/>
<feBlend mode="normal" in="SourceGraphic" in2="effect1_dropShadow_364_278" result="shape"/>
</filter>
<filter id="filter1_d_364_278" x="216.037" y="311.824" width="20.2811" height="11.7703" filterUnits="userSpaceOnUse" color-interpolation-filters="sRGB">
<feFlood flood-opacity="0" result="BackgroundImageFix"/>
<feColorMatrix in="SourceAlpha" type="matrix" values="0 0 0 0 0 0 0 0 0 0 0 0 0 0 0 0 0 0 127 0" result="hardAlpha"/>
<feOffset/>
<feGaussianBlur stdDeviation="0.280347"/>
<feComposite in2="hardAlpha" operator="out"/>
<feColorMatrix type="matrix" values="0 0 0 0 1 0 0 0 0 1 0 0 0 0 1 0 0 0 1 0"/>
<feBlend mode="normal" in2="BackgroundImageFix" result="effect1_dropShadow_364_278"/>
<feBlend mode="normal" in="SourceGraphic" in2="effect1_dropShadow_364_278" result="shape"/>
</filter>
</defs>
</svg>
