<svg width="59" height="32" viewBox="0 0 59 32" fill="none" xmlns="http://www.w3.org/2000/svg">
<path fill-rule="evenodd" clip-rule="evenodd" d="M24.5436 25.4994C25.1732 25.8142 24.8059 30.4311 24.7535 31.4279H35.0889C35.0889 30.1163 34.6168 26.2864 35.2988 25.447C35.3513 24.6075 35.4562 24.4502 36.0333 23.8731C36.8727 28.6473 36.8203 24.3452 36.9252 31.4804L43.3783 31.5328C43.3258 28.5424 43.4832 26.811 42.6963 24.0304C42.1191 21.8794 41.542 19.8858 40.9649 17.7872C40.2304 15.1115 40.073 14.0098 37.3449 13.4327C33.6724 12.6982 33.4101 13.2228 29.9474 13.2228C25.9077 13.2228 27.7439 12.3834 22.7598 13.3802C19.8743 13.9573 19.7169 14.9541 18.9824 17.5773C16.9888 24.6075 16.6215 24.3452 16.5166 31.5328H22.9172C22.9697 28.0177 22.9697 27.0734 23.8616 23.9255C24.5436 24.5551 24.4912 24.5551 24.5436 25.5519V25.4994Z" fill="#FB5C46"/>
<path fill-rule="evenodd" clip-rule="evenodd" d="M43.6931 18.2595C43.2209 19.1514 44.5325 22.7714 44.8998 24.188C45.5293 26.3915 45.4244 29.0147 45.4244 31.428L52.1923 31.533C52.1398 29.959 51.93 28.4376 52.8219 27.3883C53.5039 28.5425 53.6088 30.064 53.6613 31.533H58.9602C58.9077 28.5425 58.5929 27.808 57.8584 25.1848C57.4912 23.9257 56.8091 20.5679 56.1271 19.6761C55.2352 18.5218 52.4021 17.9447 50.5134 18.2071C48.6772 18.4694 44.2177 18.0497 43.6406 18.2071L43.6931 18.2595Z" fill="#FB5C46"/>
<path fill-rule="evenodd" clip-rule="evenodd" d="M0.882324 31.5328H6.23368C6.23368 30.0638 6.39107 28.5424 7.0731 27.3881C7.96499 28.4374 7.75514 29.9589 7.70267 31.5328H14.4706C14.523 29.067 14.3656 26.6012 14.9427 24.3452C15.31 22.9812 16.5691 19.5185 16.4117 18.2594C14.4706 17.9446 11.9523 18.4692 9.64385 18.2069C7.75514 17.9971 4.86961 18.3643 3.87278 19.5185C2.8235 20.7252 0.987253 28.7522 0.882324 31.4804V31.5328Z" fill="#FB5C46"/>
<path fill-rule="evenodd" clip-rule="evenodd" d="M28.6359 0.159216C21.2909 1.943 23.8616 12.8556 31.2066 11.2292C33.8823 10.6521 36.1907 7.87146 35.4562 4.40882C34.8791 1.68068 32.046 -0.680212 28.6359 0.159216Z" fill="#FB5C46"/>
<path fill-rule="evenodd" clip-rule="evenodd" d="M46.4738 7.76652C44.9523 8.34363 44.4801 8.65841 43.8506 9.86509C41.6995 13.8524 45.4769 17.9446 49.4642 16.6854C55.3402 14.7967 52.4022 5.56302 46.4738 7.76652Z" fill="#FB5C46"/>
<path fill-rule="evenodd" clip-rule="evenodd" d="M10.5881 7.66156C4.65968 9.44534 7.2829 18.3643 13.2638 16.6854C15.4149 16.0558 17.2511 13.6425 16.4641 10.8094C15.8346 8.65838 13.5261 6.7172 10.5357 7.60909L10.5881 7.66156Z" fill="#FB5C46"/>
</svg>
