<svg width="19" height="13" viewBox="0 0 19 13" fill="none" xmlns="http://www.w3.org/2000/svg">
<path d="M15.6136 1.57884C14.4326 1.10483 13.1865 0.766521 11.9062 0.572347C11.8947 0.570638 11.8827 0.572114 11.8721 0.576571C11.8615 0.581027 11.8528 0.588247 11.8471 0.597235C11.6866 0.846121 11.509 1.17166 11.3849 1.42652C10.0049 1.24335 8.60117 1.24335 7.22114 1.42652C7.08274 1.14261 6.92617 0.865746 6.75217 0.597235C6.74633 0.588345 6.73755 0.581209 6.72699 0.576767C6.71642 0.572324 6.70457 0.570783 6.69298 0.572347C5.41243 0.765482 4.16603 1.10397 2.98564 1.57884C2.97554 1.58221 2.96709 1.58855 2.96174 1.59676C0.600973 4.68195 -0.0467022 7.69147 0.270875 10.6632C0.272013 10.6771 0.282257 10.691 0.294778 10.7C1.66949 11.5906 3.20714 12.2706 4.84216 12.711C4.8537 12.7142 4.86611 12.7141 4.87757 12.7107C4.88903 12.7073 4.89896 12.7008 4.9059 12.6921C5.25649 12.274 5.56837 11.8329 5.83701 11.369C5.8426 11.3595 5.84452 11.3486 5.84247 11.338C5.84042 11.3274 5.83451 11.3177 5.82562 11.3103C5.81974 11.3054 5.81276 11.3017 5.80513 11.2993C5.31472 11.1345 4.83976 10.9364 4.38458 10.707C4.37186 10.7007 4.36241 10.6903 4.35817 10.6781C4.35393 10.6659 4.35523 10.6527 4.36181 10.6413C4.36568 10.6339 4.37154 10.6274 4.37888 10.6224C4.4745 10.5596 4.57011 10.4939 4.66117 10.4282C4.66922 10.4226 4.67887 10.4189 4.6891 10.4177C4.69932 10.4165 4.70974 10.4177 4.71923 10.4213C7.70035 11.6119 10.9273 11.6119 13.872 10.4213C13.8819 10.4175 13.8927 10.4162 13.9033 10.4174C13.9139 10.4187 13.924 10.4224 13.9324 10.4282C14.0234 10.4939 14.119 10.5596 14.2147 10.6224C14.2224 10.6273 14.2286 10.6339 14.2328 10.6414C14.2369 10.649 14.2388 10.6574 14.2384 10.6657C14.2379 10.6741 14.2351 10.6823 14.2302 10.6895C14.2253 10.6967 14.2184 10.7027 14.2101 10.707C13.756 10.9385 13.2804 11.1363 12.7884 11.2983C12.7806 11.3008 12.7734 11.3048 12.7675 11.3099C12.7616 11.3151 12.7571 11.3213 12.7543 11.3282C12.7516 11.3348 12.7506 11.3419 12.7512 11.3489C12.7517 11.3559 12.754 11.3628 12.7577 11.369C13.0309 11.8319 13.3439 12.274 13.6876 12.6921C13.6946 12.7008 13.7045 12.7073 13.716 12.7107C13.7274 12.7141 13.7398 12.7142 13.7514 12.711C15.3891 12.272 16.9293 11.5919 18.3056 10.7C18.3125 10.6958 18.3182 10.6904 18.3224 10.684C18.3265 10.6776 18.3289 10.6705 18.3295 10.6632C18.7097 7.22755 17.6932 4.24291 15.6364 1.59776C15.6343 1.59339 15.6312 1.58945 15.6273 1.58619C15.6233 1.58293 15.6187 1.58043 15.6136 1.57884ZM6.28207 8.85327C5.38398 8.85327 4.64524 8.1325 4.64524 7.24846C4.64524 6.36342 5.37032 5.64265 6.28207 5.64265C7.20065 5.64265 7.93256 6.36939 7.9189 7.24846C7.9189 8.1325 7.19382 8.85327 6.28207 8.85327ZM12.3331 8.85327C11.4361 8.85327 10.6963 8.1325 10.6963 7.24846C10.6963 6.36342 11.4213 5.64265 12.3331 5.64265C13.2517 5.64265 13.9847 6.36939 13.9699 7.24846C13.9699 8.1325 13.2517 8.85327 12.3331 8.85327Z" fill="white"/>
</svg>
