<svg width="11" height="8" viewBox="0 0 11 8" fill="none" xmlns="http://www.w3.org/2000/svg">
<path d="M5.46186 5.40967L4.21018 4.31568L0.642393 7.38083C0.708098 7.43996 0.783659 7.4876 0.869076 7.52374C0.954493 7.55987 1.04648 7.57794 1.14504 7.57794H9.77869C9.87725 7.57794 9.96924 7.55987 10.0547 7.52374C10.1401 7.4876 10.2156 7.43996 10.2813 7.38083L6.71355 4.31568L5.46186 5.40967ZM10.2813 0.560634C10.2156 0.501499 10.1401 0.453863 10.0547 0.417725C9.96924 0.381588 9.88053 0.363519 9.78855 0.363519C9.78855 0.363519 9.7869 0.363519 9.78362 0.363519C9.78033 0.363519 9.77869 0.363519 9.77869 0.363519H1.14504C1.04648 0.363519 0.954493 0.381588 0.869076 0.417725C0.783659 0.453863 0.708098 0.501499 0.642393 0.560634L5.46186 4.6902L10.2813 0.560634ZM0.41571 1.00414V6.9866L3.90465 4.02986L0.41571 1.00414ZM7.01908 4.02986L10.508 6.9866V0.994288L7.01908 4.02986Z" fill="black"/>
</svg>
