<svg width="24" height="23" viewBox="0 0 24 23" fill="none" xmlns="http://www.w3.org/2000/svg">
<path d="M21.1326 3.96484H2.81065C2.62375 3.96484 2.44451 4.03909 2.31236 4.17124C2.1802 4.3034 2.10596 4.48264 2.10596 4.66954V18.7634C2.10596 18.9503 2.1802 19.1295 2.31236 19.2617C2.44451 19.3938 2.62375 19.4681 2.81065 19.4681H21.1326C21.3195 19.4681 21.4988 19.3938 21.6309 19.2617C21.7631 19.1295 21.8373 18.9503 21.8373 18.7634V4.66954C21.8373 4.48264 21.7631 4.3034 21.6309 4.17124C21.4988 4.03909 21.3195 3.96484 21.1326 3.96484ZM12.4039 12.9774C12.2802 13.0734 12.1282 13.1255 11.9716 13.1255C11.8151 13.1255 11.6631 13.0734 11.5394 12.9774L4.64097 7.61233L5.50539 6.49986L11.9716 11.5285L18.4379 6.49986L19.3023 7.61233L12.4039 12.9774Z" fill="white"/>
</svg>
