<svg width="23" height="23" viewBox="0 0 23 23" fill="none" xmlns="http://www.w3.org/2000/svg">
<path fill-rule="evenodd" clip-rule="evenodd" d="M21.5214 11.455C21.5214 6.00637 17.1035 1.58936 11.6557 1.58936C6.20799 1.58936 1.79004 6.00543 1.79004 11.455C1.79004 16.3785 5.39806 20.4601 10.1148 21.2014V14.3076H7.60798V11.4541H10.1129V9.28178C10.1129 6.81066 11.5862 5.44355 13.8393 5.44355C14.9199 5.44355 16.0483 5.63617 16.0483 5.63617V8.06407H14.8043C13.5791 8.06407 13.1957 8.82514 13.1957 9.60499V11.456H15.9318L15.4949 14.3086H13.1967V21.2024C17.9134 20.462 21.5205 16.3813 21.5205 11.456L21.5214 11.455Z" fill="white"/>
</svg>
