<svg width="20" height="16" viewBox="0 0 20 16" fill="none" xmlns="http://www.w3.org/2000/svg">
<path d="M19.1328 0.215332H0.810771C0.623875 0.215332 0.444634 0.289576 0.312479 0.421732C0.180323 0.553887 0.106079 0.733128 0.106079 0.920024V15.0139C0.106079 15.2008 0.180323 15.38 0.312479 15.5122C0.444634 15.6443 0.623875 15.7186 0.810771 15.7186H19.1328C19.3197 15.7186 19.4989 15.6443 19.6311 15.5122C19.7632 15.38 19.8375 15.2008 19.8375 15.0139V0.920024C19.8375 0.733128 19.7632 0.553887 19.6311 0.421732C19.4989 0.289576 19.3197 0.215332 19.1328 0.215332ZM10.404 9.22788C10.2804 9.32388 10.1283 9.37599 9.97177 9.37599C9.81525 9.37599 9.66318 9.32388 9.53956 9.22788L2.64109 3.86282L3.50551 2.75034L9.97177 7.77903L16.438 2.75034L17.3025 3.86282L10.404 9.22788Z" fill="black"/>
</svg>
