<svg width="21" height="21" viewBox="0 0 21 21" fill="none" xmlns="http://www.w3.org/2000/svg">
<path fill-rule="evenodd" clip-rule="evenodd" d="M20.5213 10.7053C20.5213 5.25661 16.1034 0.8396 10.6556 0.8396C5.2079 0.8396 0.789948 5.25567 0.789948 10.7053C0.789948 15.6287 4.39797 19.7103 9.11471 20.4517V13.5579H6.60789V10.7044H9.11283V8.53202C9.11283 6.0609 10.5861 4.6938 12.8392 4.6938C13.9198 4.6938 15.0482 4.88641 15.0482 4.88641V7.31431H13.8042C12.579 7.31431 12.1956 8.07538 12.1956 8.85524V10.7062H14.9317L14.4948 13.5588H12.1966V20.4526C16.9133 19.7122 20.5204 15.6316 20.5204 10.7062L20.5213 10.7053Z" fill="black"/>
</svg>
