<svg width="23" height="23" viewBox="0 0 23 23" fill="none" xmlns="http://www.w3.org/2000/svg">
<path d="M15.4244 3.42504C16.5137 3.42827 17.5574 3.86239 18.3276 4.6326C19.0978 5.40281 19.5319 6.44651 19.5351 7.53575V15.7572C19.5319 16.8464 19.0978 17.8901 18.3276 18.6603C17.5574 19.4305 16.5137 19.8646 15.4244 19.8679H7.20302C6.11386 19.8644 5.0703 19.4302 4.30014 18.66C3.52998 17.8899 3.09578 16.8463 3.09231 15.7572V7.53575C3.09553 6.44651 3.52966 5.40281 4.29987 4.6326C5.07008 3.86239 6.11378 3.42827 7.20302 3.42504H15.4244ZM15.4244 1.78076H7.20302C4.03754 1.78076 1.44803 4.37027 1.44803 7.53575V15.7572C1.44803 18.9226 4.03754 21.5121 7.20302 21.5121H15.4244C18.5899 21.5121 21.1794 18.9226 21.1794 15.7572V7.53575C21.1794 4.37027 18.5899 1.78076 15.4244 1.78076Z" fill="black"/>
<path d="M16.6581 7.53525C16.4933 7.5398 16.3292 7.51127 16.1756 7.45134C16.022 7.39141 15.882 7.3013 15.7638 7.18634C15.6456 7.07137 15.5517 6.93389 15.4875 6.782C15.4234 6.63012 15.3904 6.46692 15.3904 6.30204C15.3904 6.13717 15.4234 5.97396 15.4875 5.82208C15.5517 5.67019 15.6456 5.53271 15.7638 5.41774C15.882 5.30278 16.022 5.21267 16.1756 5.15274C16.3292 5.09281 16.4933 5.06428 16.6581 5.06883C16.9792 5.0777 17.2843 5.21151 17.5083 5.44182C17.7324 5.67212 17.8577 5.98074 17.8577 6.30204C17.8577 6.62334 17.7324 6.93196 17.5083 7.16226C17.2843 7.39257 16.9792 7.52639 16.6581 7.53525Z" fill="black"/>
<path d="M11.3137 8.35766C11.7456 8.35766 12.1732 8.44272 12.5722 8.60799C12.9712 8.77325 13.3337 9.01549 13.6391 9.32086C13.9444 9.62623 14.1867 9.98876 14.3519 10.3877C14.5172 10.7867 14.6023 11.2144 14.6023 11.6462C14.6023 12.0781 14.5172 12.5057 14.3519 12.9047C14.1867 13.3037 13.9444 13.6662 13.6391 13.9716C13.3337 14.277 12.9712 14.5192 12.5722 14.6845C12.1732 14.8497 11.7456 14.9348 11.3137 14.9348C10.4415 14.9348 9.60507 14.5883 8.98834 13.9716C8.37161 13.3549 8.02514 12.5184 8.02514 11.6462C8.02514 10.774 8.37161 9.93758 8.98834 9.32086C9.60507 8.70413 10.4415 8.35766 11.3137 8.35766ZM11.3137 6.71338C10.0054 6.71338 8.75074 7.23309 7.82566 8.15818C6.90057 9.08326 6.38086 10.338 6.38086 11.6462C6.38086 12.9545 6.90057 14.2092 7.82566 15.1343C8.75074 16.0594 10.0054 16.5791 11.3137 16.5791C12.622 16.5791 13.8767 16.0594 14.8018 15.1343C15.7268 14.2092 16.2466 12.9545 16.2466 11.6462C16.2466 10.338 15.7268 9.08326 14.8018 8.15818C13.8767 7.23309 12.622 6.71338 11.3137 6.71338Z" fill="black"/>
</svg>
