<svg width="24" height="23" viewBox="0 0 24 23" fill="none" xmlns="http://www.w3.org/2000/svg">
<path d="M20.259 1.78027H3.7917C2.89252 1.78027 2.10608 2.42859 2.10608 3.3165V19.8213C2.10608 20.7149 2.89252 21.5117 3.7917 21.5117H20.2543C21.1591 21.5117 21.8375 20.7092 21.8375 19.8204V3.31744C21.8431 2.42859 21.1591 1.78121 20.259 1.78121V1.78027ZM8.22281 18.2278H5.39464V9.43793H8.22281V18.2278ZM6.90738 8.10183H6.88671C5.98189 8.10183 5.39652 7.42909 5.39652 6.58627C5.39652 5.72655 5.99786 5.06884 6.92242 5.06884C7.84697 5.06884 8.41355 5.72185 8.43328 6.58534C8.43328 7.42815 7.84697 8.10089 6.90644 8.10089L6.90738 8.10183ZM18.5536 18.2278H15.7264V13.4218C15.7264 12.2708 15.3148 11.4834 14.2926 11.4834C13.5108 11.4834 13.0485 12.0124 12.8428 12.5273C12.7657 12.7124 12.7451 12.9642 12.7451 13.2217V18.2278H9.91877V9.43793H12.7451V10.6603C13.1566 10.075 13.7993 9.23216 15.2942 9.23216C17.1499 9.23216 18.5536 10.4546 18.5536 13.092V18.2278Z" fill="black"/>
</svg>
