<svg width="221" height="57" viewBox="0 0 221 57" fill="none" xmlns="http://www.w3.org/2000/svg">
<path d="M20.7534 14.2558L0 0V49.2475L15.5651 39.5276V56.3754L22.0505 51.8394V35.6396L28.536 31.1037V24.6237L6.48545 38.8796V11.6639L20.7534 20.7358L35.0214 11.6639V42.7675L41.5069 38.8796V0L20.7534 14.2558Z" fill="url(#paint0_linear_418_199)"/>
<path d="M79.2394 28.1132H75.3819V7.97542H74.6587L68.7279 21.4167H65.9313L60.1934 7.97542H59.4701V28.1132H55.6127V4.55489H62.5079L67.2814 15.8282H67.7636L72.5371 4.55489H79.2394V28.1132Z" fill="black"/>
<path d="M103.827 28.1614H100.451V25.7526L98.0404 28.1614H90.3256C89.3934 28.1614 88.5898 27.8402 87.9147 27.1979C87.2719 26.5234 86.9504 25.7204 86.9504 24.789V11.2996H90.3256V25.2708H100.451V11.2996H103.827V28.1614Z" fill="black"/>
<path d="M124.33 11.2996L121.389 14.1902H113.24V18.0443H119.991C120.923 18.0443 121.71 18.3816 122.353 19.056C123.028 19.6984 123.366 20.4853 123.366 21.4167V24.789C123.366 25.7204 123.028 26.5234 122.353 27.1979C121.71 27.8402 120.923 28.1614 119.991 28.1614H109.865V25.2708H119.991V20.9349H113.24C112.308 20.9349 111.504 20.6137 110.829 19.9714C110.186 19.2969 109.865 18.494 109.865 17.5626V14.672C109.865 13.7405 110.186 12.9537 110.829 12.3113C111.504 11.6368 112.308 11.2996 113.24 11.2996H124.33Z" fill="black"/>
<path d="M140.466 28.1614H133.716C132.784 28.1614 131.98 27.8402 131.305 27.1979C130.662 26.5234 130.341 25.7204 130.341 24.789V14.1902H125.519L128.412 11.2996H130.341V7.92725L133.716 4.55489V11.2996H140.466V14.1902H133.716V25.2708H140.466V28.1614Z" fill="black"/>
<path d="M159.998 7.92725H153.007V28.1614H149.149V7.92725H142.158V4.55489H159.998V7.92725Z" fill="black"/>
<path d="M180.485 28.1614H166.984C166.052 28.1614 165.248 27.8402 164.573 27.1979C163.93 26.5234 163.609 25.7204 163.609 24.789V14.672C163.609 13.7405 163.93 12.9537 164.573 12.3113C165.248 11.6368 166.052 11.2996 166.984 11.2996H177.11C178.042 11.2996 178.829 11.6368 179.472 12.3113C180.147 12.9537 180.485 13.7405 180.485 14.672V18.0443L177.11 21.4167H167.466L170.359 18.5261H177.11V14.1902H166.984V25.2708H180.485V28.1614Z" fill="black"/>
<path d="M200.252 11.2996L197.311 14.1902H189.162V25.2708H199.288V28.1614H189.162C188.23 28.1614 187.426 27.8402 186.751 27.1979C186.108 26.5234 185.787 25.7204 185.787 24.789V14.672C185.787 13.7405 186.108 12.9537 186.751 12.3113C187.426 11.6368 188.23 11.2996 189.162 11.2996H200.252Z" fill="black"/>
<path d="M220.991 28.1614H217.616V14.1902H207.491V28.1614H204.115V3.59136L207.491 0.219002V13.7084L209.901 11.2996H217.616C218.548 11.2996 219.336 11.6368 219.979 12.3113C220.654 12.9537 220.991 13.7405 220.991 14.672V28.1614Z" fill="black"/>
<path d="M61.7855 51.609C60.8312 51.609 59.9523 51.4434 59.1486 51.1122C58.3551 50.7809 57.7523 50.3343 57.3405 49.7723C57.2802 49.692 57.2501 49.6016 57.2501 49.5013C57.2501 49.3607 57.3154 49.2403 57.446 49.1399C57.5163 49.0897 57.5866 49.0647 57.6569 49.0647C57.7975 49.0647 57.9432 49.15 58.0939 49.3206C58.4856 49.7723 58.998 50.1235 59.6308 50.3745C60.2637 50.6153 60.9819 50.7358 61.7855 50.7358C62.7198 50.7358 63.438 50.5652 63.9403 50.2239C64.4526 49.8827 64.7087 49.3909 64.7087 48.7485C64.7087 48.2065 64.4676 47.7699 63.9855 47.4387C63.5133 47.0974 62.6997 46.8014 61.5445 46.5504C60.0979 46.2393 59.0582 45.8429 58.4254 45.3611C57.8026 44.8793 57.4912 44.247 57.4912 43.4641C57.4912 42.6311 57.8377 41.9737 58.5309 41.4919C59.224 41.0101 60.1682 40.7693 61.3636 40.7693C62.2878 40.7693 63.1165 40.9299 63.8499 41.251C64.5832 41.5722 65.0955 42.0038 65.3868 42.5458C65.437 42.6461 65.4621 42.7315 65.4621 42.8017C65.4621 42.9523 65.3868 43.0727 65.2361 43.163C65.1758 43.1931 65.1055 43.2082 65.0252 43.2082C64.8142 43.2082 64.6585 43.1279 64.5581 42.9673C64.2868 42.5357 63.875 42.2045 63.3225 41.9737C62.78 41.7428 62.1271 41.6274 61.3636 41.6274C60.3892 41.6274 59.661 41.783 59.1788 42.0941C58.7066 42.3952 58.4706 42.8519 58.4706 43.4641C58.4706 43.8255 58.566 44.1316 58.7569 44.3825C58.9477 44.6334 59.2642 44.8542 59.7062 45.0449C60.1582 45.2356 60.776 45.4213 61.5595 45.602C63.0161 45.9432 64.0658 46.3597 64.7087 46.8516C65.3617 47.3434 65.6881 47.9757 65.6881 48.7485C65.6881 49.6317 65.3366 50.3293 64.6334 50.8412C63.9403 51.353 62.991 51.609 61.7855 51.609Z" fill="#D24732"/>
<path d="M81.7771 51.609C80.7927 51.609 79.8986 51.3882 79.095 50.9466C78.2914 50.4949 77.6535 49.8626 77.1814 49.0496C76.7093 48.2266 76.4732 47.2731 76.4732 46.1891C76.4732 45.1051 76.7042 44.1517 77.1663 43.3286C77.6384 42.5056 78.2763 41.8733 79.0799 41.4317C79.8936 40.9901 80.7927 40.7693 81.7771 40.7693C82.7616 40.7693 83.6556 40.9901 84.4592 41.4317C85.2729 41.8733 85.9158 42.5056 86.3879 43.3286C86.86 44.1517 87.0961 45.1051 87.0961 46.1891C87.0961 47.2731 86.86 48.2266 86.3879 49.0496C85.9158 49.8626 85.2729 50.4949 84.4592 50.9466C83.6556 51.3882 82.7616 51.609 81.7771 51.609ZM81.7771 50.7508C82.6008 50.7508 83.3392 50.5752 83.9921 50.2239C84.6551 49.8626 85.1775 49.3407 85.5592 48.6582C85.9409 47.9656 86.1318 47.1426 86.1318 46.1891C86.1318 45.2256 85.9359 44.4026 85.5441 43.7201C85.1624 43.0275 84.64 42.5056 83.977 42.1543C83.3241 41.803 82.5908 41.6224 81.7771 41.6124C80.9534 41.6124 80.2151 41.793 79.5621 42.1543C78.9092 42.5056 78.3918 43.0275 78.0101 43.7201C77.6284 44.4126 77.4375 45.2356 77.4375 46.1891C77.4375 47.1426 77.6284 47.9656 78.0101 48.6582C78.3918 49.3407 78.9092 49.8626 79.5621 50.2239C80.2151 50.5752 80.9534 50.7508 81.7771 50.7508Z" fill="#D24732"/>
<path d="M100.15 51.4584C99.5671 51.4584 99.115 51.3029 98.7936 50.9917C98.4721 50.6806 98.3114 50.254 98.3114 49.712V41.3112C98.3114 41.1406 98.3516 41.0101 98.432 40.9198C98.5123 40.8194 98.6278 40.7693 98.7785 40.7693C98.9392 40.7693 99.0598 40.8194 99.1402 40.9198C99.2306 41.0101 99.2758 41.1406 99.2758 41.3112V49.7421C99.2758 50.0131 99.3511 50.2289 99.5018 50.3895C99.6525 50.5501 99.8534 50.6304 100.104 50.6304H105.152C105.504 50.6304 105.68 50.7709 105.68 51.0519C105.68 51.1824 105.634 51.2828 105.544 51.353C105.454 51.4233 105.323 51.4584 105.152 51.4584H100.15Z" fill="#D24732"/>
<path d="M120.282 51.609C118.946 51.609 117.891 51.2226 117.118 50.4497C116.354 49.6769 115.973 48.613 115.973 47.258V41.3112C115.973 41.1406 116.013 41.0101 116.093 40.9198C116.184 40.8194 116.304 40.7693 116.455 40.7693C116.605 40.7693 116.721 40.8194 116.801 40.9198C116.892 41.0101 116.937 41.1406 116.937 41.3112V47.3032C116.937 48.4072 117.228 49.2604 117.811 49.8626C118.404 50.4548 119.242 50.7508 120.327 50.7508C121.402 50.7508 122.241 50.4497 122.844 49.8475C123.446 49.2353 123.748 48.3872 123.748 47.3032V41.3112C123.748 41.1406 123.793 41.0101 123.883 40.9198C123.974 40.8194 124.094 40.7693 124.245 40.7693C124.396 40.7693 124.511 40.8194 124.592 40.9198C124.672 41.0101 124.712 41.1406 124.712 41.3112V47.258C124.712 48.1312 124.531 48.8991 124.17 49.5615C123.818 50.2139 123.306 50.7207 122.633 51.0821C121.97 51.4333 121.186 51.609 120.282 51.609Z" fill="#D24732"/>
<path d="M140.25 51.609C139.929 51.609 139.768 51.4283 139.768 51.067V41.7328H136.212C135.871 41.7328 135.7 41.6023 135.7 41.3414C135.7 41.1908 135.74 41.0854 135.82 41.0252C135.911 40.9549 136.041 40.9198 136.212 40.9198H144.304C144.645 40.9198 144.816 41.0603 144.816 41.3414C144.816 41.6023 144.645 41.7328 144.304 41.7328H140.748V51.067C140.748 51.2376 140.702 51.3681 140.612 51.4584C140.522 51.5588 140.401 51.609 140.25 51.609Z" fill="#D24732"/>
<path d="M156.798 51.609C156.647 51.609 156.527 51.5588 156.436 51.4584C156.356 51.3681 156.316 51.2376 156.316 51.067V41.3112C156.316 40.9499 156.476 40.7693 156.798 40.7693C156.949 40.7693 157.064 40.8194 157.145 40.9198C157.235 41.0101 157.28 41.1406 157.28 41.3112V51.067C157.28 51.2376 157.235 51.3681 157.145 51.4584C157.064 51.5588 156.949 51.609 156.798 51.609Z" fill="#D24732"/>
<path d="M174.245 51.609C173.261 51.609 172.367 51.3882 171.563 50.9466C170.759 50.4949 170.122 49.8626 169.649 49.0496C169.177 48.2266 168.941 47.2731 168.941 46.1891C168.941 45.1051 169.172 44.1517 169.634 43.3286C170.106 42.5056 170.744 41.8733 171.548 41.4317C172.362 40.9901 173.261 40.7693 174.245 40.7693C175.23 40.7693 176.124 40.9901 176.927 41.4317C177.741 41.8733 178.384 42.5056 178.856 43.3286C179.328 44.1517 179.564 45.1051 179.564 46.1891C179.564 47.2731 179.328 48.2266 178.856 49.0496C178.384 49.8626 177.741 50.4949 176.927 50.9466C176.124 51.3882 175.23 51.609 174.245 51.609ZM174.245 50.7508C175.069 50.7508 175.807 50.5752 176.46 50.2239C177.123 49.8626 177.646 49.3407 178.027 48.6582C178.409 47.9656 178.6 47.1426 178.6 46.1891C178.6 45.2256 178.404 44.4026 178.012 43.7201C177.63 43.0275 177.108 42.5056 176.445 42.1543C175.792 41.803 175.059 41.6224 174.245 41.6124C173.421 41.6124 172.683 41.793 172.03 42.1543C171.377 42.5056 170.86 43.0275 170.478 43.7201C170.096 44.4126 169.906 45.2356 169.906 46.1891C169.906 47.1426 170.096 47.9656 170.478 48.6582C170.86 49.3407 171.377 49.8626 172.03 50.2239C172.683 50.5752 173.421 50.7508 174.245 50.7508Z" fill="#D24732"/>
<path d="M190.774 51.609C190.623 51.609 190.502 51.5588 190.412 51.4584C190.332 51.3681 190.291 51.2376 190.291 51.067V44.8342C190.291 43.5695 190.678 42.5759 191.452 41.8532C192.225 41.1306 193.29 40.7693 194.646 40.7693C195.992 40.7693 197.052 41.1306 197.825 41.8532C198.599 42.5759 198.986 43.5695 198.986 44.8342V51.067C198.986 51.4283 198.825 51.609 198.503 51.609C198.353 51.609 198.232 51.5588 198.142 51.4584C198.061 51.3681 198.021 51.2376 198.021 51.067V44.789C198.021 43.7853 197.725 43.0075 197.132 42.4554C196.55 41.8934 195.721 41.6124 194.646 41.6124C193.581 41.6124 192.747 41.8934 192.145 42.4554C191.552 43.0175 191.256 43.7954 191.256 44.789V51.067C191.256 51.2376 191.211 51.3681 191.12 51.4584C191.04 51.5588 190.924 51.609 190.774 51.609Z" fill="#D24732"/>
<path d="M214.661 51.609C213.707 51.609 212.828 51.4434 212.024 51.1122C211.23 50.7809 210.628 50.3343 210.216 49.7723C210.156 49.692 210.125 49.6016 210.125 49.5013C210.125 49.3607 210.191 49.2403 210.321 49.1399C210.392 49.0897 210.462 49.0647 210.532 49.0647C210.673 49.0647 210.819 49.15 210.969 49.3206C211.361 49.7723 211.873 50.1235 212.506 50.3745C213.139 50.6153 213.857 50.7358 214.661 50.7358C215.595 50.7358 216.313 50.5652 216.816 50.2239C217.328 49.8827 217.584 49.3909 217.584 48.7485C217.584 48.2065 217.343 47.7699 216.861 47.4387C216.389 47.0974 215.575 46.8014 214.42 46.5504C212.973 46.2393 211.934 45.8429 211.301 45.3611C210.678 44.8793 210.367 44.247 210.367 43.4641C210.367 42.6311 210.713 41.9737 211.406 41.4919C212.099 41.0101 213.044 40.7693 214.239 40.7693C215.163 40.7693 215.992 40.9299 216.725 41.251C217.459 41.5722 217.971 42.0038 218.262 42.5458C218.312 42.6461 218.338 42.7315 218.338 42.8017C218.338 42.9523 218.262 43.0727 218.111 43.163C218.051 43.1931 217.981 43.2082 217.901 43.2082C217.69 43.2082 217.534 43.1279 217.433 42.9673C217.162 42.5357 216.75 42.2045 216.198 41.9737C215.655 41.7428 215.002 41.6274 214.239 41.6274C213.265 41.6274 212.536 41.783 212.054 42.0941C211.582 42.3952 211.346 42.8519 211.346 43.4641C211.346 43.8255 211.441 44.1316 211.632 44.3825C211.823 44.6334 212.14 44.8542 212.582 45.0449C213.034 45.2356 213.651 45.4213 214.435 45.602C215.891 45.9432 216.941 46.3597 217.584 46.8516C218.237 47.3434 218.564 47.9757 218.564 48.7485C218.564 49.6317 218.212 50.3293 217.509 50.8412C216.816 51.353 215.866 51.609 214.661 51.609Z" fill="#D24732"/>
<defs>
<linearGradient id="paint0_linear_418_199" x1="219.637" y1="-9.02712e-06" x2="59.3279" y2="129.675" gradientUnits="userSpaceOnUse">
<stop stop-color="#EC4D37"/>
<stop offset="1" stop-color="#FF624C"/>
</linearGradient>
</defs>
</svg>
