<svg width="16" height="21" viewBox="0 0 16 21" fill="none" xmlns="http://www.w3.org/2000/svg">
<path d="M7.97176 0.4104C4.08186 0.4104 0.924835 3.25172 0.924835 6.75263C0.924835 12.3902 7.97176 20.1418 7.97176 20.1418C7.97176 20.1418 15.0187 12.3902 15.0187 6.75263C15.0187 3.25172 11.8617 0.4104 7.97176 0.4104ZM7.97176 10.2761C7.59732 10.2829 7.22528 10.2151 6.87736 10.0765C6.52944 9.93796 6.21262 9.73146 5.9454 9.46908C5.67819 9.2067 5.46594 8.8937 5.32104 8.54836C5.17615 8.20303 5.10153 7.83229 5.10153 7.45779C5.10153 7.0833 5.17615 6.71255 5.32104 6.36722C5.46594 6.02189 5.67819 5.70889 5.9454 5.44651C6.21262 5.18413 6.52944 4.97763 6.87736 4.83906C7.22528 4.7005 7.59732 4.63266 7.97176 4.63949C8.71031 4.65298 9.41405 4.95583 9.93158 5.4829C10.4491 6.00997 10.7391 6.71912 10.7391 7.45779C10.7391 8.19646 10.4491 8.90562 9.93158 9.43269C9.41405 9.95975 8.71031 10.2626 7.97176 10.2761Z" fill="black"/>
</svg>
