<svg width="20" height="20" viewBox="0 0 20 20" fill="none" xmlns="http://www.w3.org/2000/svg">
<path d="M19.7905 15.1107C19.5612 14.8664 18.7494 14.142 17.2564 13.1845C15.7531 12.2168 14.6443 11.6154 14.3268 11.4745C14.2988 11.4622 14.2681 11.4578 14.2378 11.4616C14.2075 11.4654 14.1789 11.4773 14.1548 11.4961C13.6745 11.8791 13.2005 12.27 12.7332 12.6687C12.4354 12.9252 12.4354 12.9252 12.1901 12.8453C11.7607 12.7044 10.4256 11.995 9.26143 10.829C8.09821 9.66295 7.35218 8.29397 7.21124 7.86458C7.13138 7.62028 7.13138 7.62028 7.38788 7.3215C7.42735 7.27452 8.16117 6.41291 8.56143 5.90084C8.58023 5.8766 8.59208 5.84771 8.59572 5.81726C8.59937 5.7868 8.59466 5.75593 8.5821 5.72795C8.4421 5.40943 7.83983 4.30165 6.87299 2.79831C5.91461 1.30624 5.19112 0.495375 4.94683 0.265176C4.92421 0.244002 4.8963 0.229332 4.86603 0.222716C4.83576 0.2161 4.80427 0.217785 4.77489 0.227592C3.91893 0.521458 3.09303 0.896495 2.30846 1.34758C1.55126 1.78783 0.834395 2.29404 0.166198 2.86032C0.142639 2.88014 0.124938 2.90602 0.115004 2.93516C0.105069 2.9643 0.103278 2.99561 0.109823 3.02569C0.201903 3.45414 0.641631 5.245 2.00779 7.72552C3.40027 10.2568 4.36616 11.5543 6.41165 13.5933C8.45714 15.6322 9.79511 16.6554 12.3301 18.0488C14.8106 19.414 16.6015 19.8537 17.03 19.9449C17.06 19.9514 17.0912 19.9497 17.1203 19.94C17.1494 19.9302 17.1753 19.9128 17.1953 19.8894C17.7617 19.2213 18.2679 18.5044 18.7081 17.7472C19.1591 16.9626 19.5349 16.1367 19.829 15.2808C19.8383 15.2516 19.8398 15.2205 19.8332 15.1906C19.8266 15.1608 19.8112 15.1332 19.7905 15.1107Z" fill="black"/>
</svg>
