<svg width="30" height="30" viewBox="0 0 30 30" fill="none" xmlns="http://www.w3.org/2000/svg">
<path d="M26.9026 0C27.68 0 28.3602 0.258198 28.9432 0.774595C29.5262 1.29099 29.8178 1.93788 29.8178 2.71525C29.8178 3.41488 29.5679 4.25333 29.0681 5.2306C25.3812 12.2158 22.7992 16.3914 21.3222 17.7574C20.245 18.768 19.0345 19.2733 17.6908 19.2733C16.2915 19.2733 15.0893 18.7596 14.0843 17.7324C13.0793 16.7052 12.5768 15.4864 12.5768 14.076C12.5768 12.6545 13.0876 11.4773 14.1093 10.5445L24.7371 0.89953C25.3923 0.299843 26.1141 0 26.9026 0ZM11.7605 17.2243C12.1936 18.0683 12.785 18.7902 13.5346 19.3899C14.2842 19.9896 15.1199 20.4116 16.0416 20.6559L16.0583 21.8386C16.1027 24.204 15.3836 26.1308 13.9011 27.6189C12.4185 29.107 10.4834 29.8511 8.09577 29.8511C6.72982 29.8511 5.51934 29.5929 4.46433 29.0765C3.40933 28.5601 2.56255 27.8521 1.92399 26.9526C1.28544 26.0531 0.805135 25.0369 0.483081 23.9042C0.161027 22.7714 0 21.5499 0 20.2394C0.0777372 20.295 0.305396 20.4615 0.682976 20.7392C1.06056 21.0168 1.40482 21.2639 1.71577 21.4804C2.02672 21.697 2.35433 21.8997 2.69859 22.0885C3.04285 22.2773 3.29828 22.3716 3.46486 22.3716C3.92017 22.3716 4.22557 22.1662 4.38104 21.7553C4.65868 21.0224 4.97795 20.3977 5.33888 19.8813C5.6998 19.3649 6.08571 18.9429 6.49661 18.6153C6.9075 18.2877 7.39614 18.0239 7.96251 17.824C8.52888 17.6241 9.1008 17.4825 9.67828 17.3992C10.2558 17.316 10.9498 17.2577 11.7605 17.2243Z" fill="#FB5C46"/>
</svg>
