<svg width="32" height="25" viewBox="0 0 32 25" fill="none" xmlns="http://www.w3.org/2000/svg">
<path d="M31.0338 22.2706V24.2098H0.00646973V0.939365H1.94568V22.2706H31.0338ZM29.0946 3.36337V9.95364C29.0946 10.1657 28.9961 10.3147 28.7991 10.4006C28.6022 10.4864 28.4229 10.4485 28.2613 10.2869L26.4282 8.45379L16.8382 18.0438C16.7372 18.1448 16.621 18.1953 16.4897 18.1953C16.3584 18.1953 16.2423 18.1448 16.1413 18.0438L12.6113 14.5138L6.30889 20.8162L3.40008 17.9074L12.2629 9.04464C12.3639 8.94364 12.48 8.89314 12.6113 8.89314C12.7426 8.89314 12.8588 8.94364 12.9598 9.04464L16.4897 12.5746L23.5193 5.54498L21.6862 3.71182C21.5246 3.55022 21.4867 3.37095 21.5726 3.174C21.6584 2.97705 21.8074 2.87857 22.0195 2.87857H28.6098C28.7512 2.87857 28.8673 2.92402 28.9582 3.01492C29.0491 3.10582 29.0946 3.22197 29.0946 3.36337Z" fill="#FB5C46"/>
</svg>
