<svg width="23" height="23" viewBox="0 0 23 23" fill="none" xmlns="http://www.w3.org/2000/svg">
<path d="M15.4242 3.17456C16.5134 3.17778 17.5571 3.6119 18.3273 4.38211C19.0975 5.15232 19.5316 6.19602 19.5349 7.28526V15.5067C19.5316 16.5959 19.0975 17.6396 18.3273 18.4098C17.5571 19.18 16.5134 19.6142 15.4242 19.6174H7.20274C6.11358 19.6139 5.07002 19.1797 4.29987 18.4095C3.52971 17.6394 3.0955 16.5958 3.09204 15.5067V7.28526C3.09526 6.19602 3.52938 5.15232 4.29959 4.38211C5.0698 3.6119 6.11351 3.17778 7.20274 3.17456H15.4242ZM15.4242 1.53027H7.20274C4.03726 1.53027 1.44775 4.11978 1.44775 7.28526V15.5067C1.44775 18.6721 4.03726 21.2617 7.20274 21.2617H15.4242C18.5896 21.2617 21.1791 18.6721 21.1791 15.5067V7.28526C21.1791 4.11978 18.5896 1.53027 15.4242 1.53027Z" fill="white"/>
<path d="M16.6579 7.28476C16.493 7.28931 16.329 7.26078 16.1754 7.20085C16.0218 7.14092 15.8818 7.05082 15.7636 6.93585C15.6454 6.82089 15.5515 6.6834 15.4873 6.53151C15.4232 6.37963 15.3901 6.21643 15.3901 6.05155C15.3901 5.88668 15.4232 5.72348 15.4873 5.57159C15.5515 5.41971 15.6454 5.28222 15.7636 5.16725C15.8818 5.05229 16.0218 4.96218 16.1754 4.90225C16.329 4.84232 16.493 4.81379 16.6579 4.81834C16.979 4.82721 17.2841 4.96102 17.5081 5.19133C17.7322 5.42163 17.8575 5.73025 17.8575 6.05155C17.8575 6.37285 17.7322 6.68147 17.5081 6.91178C17.2841 7.14208 16.979 7.2759 16.6579 7.28476Z" fill="white"/>
<path d="M11.3137 8.10717C11.7456 8.10717 12.1732 8.19223 12.5722 8.3575C12.9712 8.52277 13.3337 8.765 13.6391 9.07037C13.9444 9.37574 14.1867 9.73827 14.3519 10.1373C14.5172 10.5362 14.6023 10.9639 14.6023 11.3957C14.6023 11.8276 14.5172 12.2552 14.3519 12.6542C14.1867 13.0532 13.9444 13.4157 13.6391 13.7211C13.3337 14.0265 12.9712 14.2687 12.5722 14.434C12.1732 14.5992 11.7456 14.6843 11.3137 14.6843C10.4415 14.6843 9.60507 14.3378 8.98834 13.7211C8.37161 13.1044 8.02514 12.2679 8.02514 11.3957C8.02514 10.5236 8.37161 9.6871 8.98834 9.07037C9.60507 8.45365 10.4415 8.10717 11.3137 8.10717ZM11.3137 6.46289C10.0054 6.46289 8.75074 6.9826 7.82566 7.90769C6.90057 8.83278 6.38086 10.0875 6.38086 11.3957C6.38086 12.704 6.90057 13.9587 7.82566 14.8838C8.75074 15.8089 10.0054 16.3286 11.3137 16.3286C12.622 16.3286 13.8767 15.8089 14.8018 14.8838C15.7268 13.9587 16.2466 12.704 16.2466 11.3957C16.2466 10.0875 15.7268 8.83278 14.8018 7.90769C13.8767 6.9826 12.622 6.46289 11.3137 6.46289Z" fill="white"/>
</svg>
