<svg width="24" height="23" viewBox="0 0 24 23" fill="none" xmlns="http://www.w3.org/2000/svg">
<path d="M20.2588 1.53027H3.79158C2.89239 1.53027 2.10596 2.17859 2.10596 3.0665V19.5713C2.10596 20.4649 2.89239 21.2617 3.79158 21.2617H20.2541C21.159 21.2617 21.8373 20.4592 21.8373 19.5704V3.06744C21.843 2.17859 21.159 1.53121 20.2588 1.53121V1.53027ZM8.22269 17.9778H5.39452V9.18793H8.22269V17.9778ZM6.90726 7.85183H6.88659C5.98176 7.85183 5.3964 7.17909 5.3964 6.33627C5.3964 5.47655 5.99774 4.81884 6.92229 4.81884C7.84685 4.81884 8.41342 5.47185 8.43315 6.33534C8.43315 7.17815 7.84685 7.85089 6.90632 7.85089L6.90726 7.85183ZM18.5535 17.9778H15.7262V13.1718C15.7262 12.0208 15.3147 11.2334 14.2924 11.2334C13.5107 11.2334 13.0484 11.7624 12.8426 12.2773C12.7656 12.4624 12.7449 12.7142 12.7449 12.9717V17.9778H9.91865V9.18793H12.7449V10.4103C13.1565 9.82497 13.7992 8.98216 15.294 8.98216C17.1497 8.98216 18.5535 10.2046 18.5535 12.842V17.9778Z" fill="white"/>
</svg>
