<svg width="30" height="30" viewBox="0 0 30 30" fill="none" xmlns="http://www.w3.org/2000/svg">
<path d="M15.1365 1.91907C12.4808 1.9222 9.93482 2.97855 8.05697 4.8564C6.17912 6.73425 5.12277 9.28026 5.11964 11.9359C5.11646 14.1062 5.82536 16.2175 7.13758 17.946C7.13758 17.946 7.41077 18.3057 7.45539 18.3577L15.1365 27.4165L22.8213 18.3531C22.8613 18.3048 23.1354 17.946 23.1354 17.946L23.1363 17.9433C24.4479 16.2155 25.1565 14.1052 25.1534 11.9359C25.1502 9.28026 24.0939 6.73425 22.216 4.8564C20.3382 2.97855 17.7922 1.9222 15.1365 1.91907ZM15.1365 15.5784C14.4161 15.5784 13.7118 15.3648 13.1128 14.9646C12.5138 14.5643 12.047 13.9954 11.7713 13.3299C11.4956 12.6643 11.4234 11.9319 11.564 11.2253C11.7045 10.5187 12.0515 9.86971 12.5609 9.3603C13.0703 8.85088 13.7193 8.50397 14.4259 8.36342C15.1325 8.22288 15.8648 8.29501 16.5304 8.5707C17.196 8.8464 17.7649 9.31326 18.1651 9.91227C18.5654 10.5113 18.779 11.2155 18.779 11.9359C18.7778 12.9016 18.3936 13.8274 17.7108 14.5102C17.028 15.1931 16.1022 15.5772 15.1365 15.5784Z" fill="white"/>
</svg>
