<svg width="21" height="27" viewBox="0 0 21 27" fill="none" xmlns="http://www.w3.org/2000/svg">
<path d="M10.1365 0.919067C7.48083 0.9222 4.93482 1.97855 3.05697 3.8564C1.17912 5.73425 0.122773 8.28026 0.11964 10.9359C0.116459 13.1062 0.825355 15.2175 2.13758 16.946C2.13758 16.946 2.41077 17.3057 2.45539 17.3577L10.1365 26.4165L17.8213 17.3531C17.8613 17.3048 18.1354 16.946 18.1354 16.946L18.1363 16.9433C19.4479 15.2155 20.1565 13.1052 20.1534 10.9359C20.1502 8.28026 19.0939 5.73425 17.216 3.8564C15.3382 1.97855 12.7922 0.9222 10.1365 0.919067ZM10.1365 14.5784C9.41608 14.5784 8.71185 14.3648 8.11284 13.9646C7.51384 13.5643 7.04697 12.9954 6.77128 12.3299C6.49558 11.6643 6.42345 10.9319 6.564 10.2253C6.70454 9.51874 7.05146 8.86971 7.56087 8.3603C8.07028 7.85088 8.71931 7.50397 9.42589 7.36342C10.1325 7.22288 10.8648 7.29501 11.5304 7.5707C12.196 7.8464 12.7649 8.31326 13.1651 8.91227C13.5654 9.51127 13.779 10.2155 13.779 10.9359C13.7778 11.9016 13.3936 12.8274 12.7108 13.5102C12.028 14.1931 11.1022 14.5772 10.1365 14.5784Z" fill="white"/>
</svg>
