<svg width="210" height="53" viewBox="0 0 210 53" fill="none" xmlns="http://www.w3.org/2000/svg">
<path d="M19.7212 13.4023L0 0V46.2988L14.7909 37.1609V53L20.9538 48.7356V33.5057L27.1167 29.2414V23.1494L6.16288 36.5517V10.9655L19.7212 19.4943L33.2796 10.9655V40.2069L39.4425 36.5517V0L19.7212 13.4023Z" fill="url(#paint0_linear_101_22)"/>
<path d="M75.2982 26.43H71.6327V7.49791H70.9454L65.3096 20.1344H62.6521L57.1996 7.49791H56.5123V26.43H52.8467V4.28217H59.3989L63.935 14.8805H64.3932L68.9293 4.28217H75.2982V26.43Z" fill="white"/>
<path d="M98.6625 26.4753H95.4552V24.2107L93.1642 26.4753H85.8331C84.9473 26.4753 84.1836 26.1733 83.5421 25.5694C82.9312 24.9353 82.6257 24.1805 82.6257 23.3048V10.6231H85.8331V23.7577H95.4552V10.6231H98.6625V26.4753Z" fill="white"/>
<path d="M118.146 10.6231L115.352 13.3406H107.608V16.9639H114.023C114.909 16.9639 115.657 17.281 116.268 17.9151C116.909 18.519 117.23 19.2587 117.23 20.1344V23.3048C117.23 24.1805 116.909 24.9353 116.268 25.5694C115.657 26.1733 114.909 26.4753 114.023 26.4753H104.401V23.7577H114.023V19.6815H107.608C106.722 19.6815 105.959 19.3795 105.317 18.7756C104.706 18.1415 104.401 17.3867 104.401 16.511V13.7935C104.401 12.9179 104.706 12.1781 105.317 11.5742C105.959 10.9401 106.722 10.6231 107.608 10.6231H118.146Z" fill="white"/>
<path d="M133.48 26.4753H127.065C126.179 26.4753 125.416 26.1733 124.774 25.5694C124.163 24.9353 123.858 24.1805 123.858 23.3048V13.3406H119.276L122.025 10.6231H123.858V7.45262L127.065 4.28217V10.6231H133.48V13.3406H127.065V23.7577H133.48V26.4753Z" fill="white"/>
<path d="M152.04 7.45262H145.396V26.4753H141.731V7.45262H135.087V4.28217H152.04V7.45262Z" fill="white"/>
<path d="M171.508 26.4753H158.679C157.793 26.4753 157.029 26.1733 156.388 25.5694C155.777 24.9353 155.471 24.1805 155.471 23.3048V13.7935C155.471 12.9179 155.777 12.1781 156.388 11.5742C157.029 10.9401 157.793 10.6231 158.679 10.6231H168.301C169.187 10.6231 169.935 10.9401 170.546 11.5742C171.187 12.1781 171.508 12.9179 171.508 13.7935V16.9639L168.301 20.1344H159.137L161.886 17.4169H168.301V13.3406H158.679V23.7577H171.508V26.4753Z" fill="white"/>
<path d="M190.292 10.6231L187.497 13.3406H179.754V23.7577H189.376V26.4753H179.754C178.868 26.4753 178.104 26.1733 177.463 25.5694C176.852 24.9353 176.547 24.1805 176.547 23.3048V13.7935C176.547 12.9179 176.852 12.1781 177.463 11.5742C178.104 10.9401 178.868 10.6231 179.754 10.6231H190.292Z" fill="white"/>
<path d="M210 26.4753H206.793V13.3406H197.171V26.4753H193.963V3.37633L197.171 0.20589V12.8877L199.462 10.6231H206.793C207.678 10.6231 208.427 10.9401 209.038 11.5742C209.679 12.1781 210 12.9179 210 13.7935V26.4753Z" fill="white"/>
<path d="M58.7125 48.519C57.8057 48.519 56.9704 48.3633 56.2068 48.0519C55.4527 47.7405 54.8799 47.3206 54.4885 46.7922C54.4313 46.7167 54.4026 46.6318 54.4026 46.5374C54.4026 46.4053 54.4647 46.2921 54.5888 46.1978C54.6556 46.1506 54.7224 46.127 54.7892 46.127C54.9229 46.127 55.0613 46.2072 55.2045 46.3676C55.5767 46.7922 56.0636 47.1225 56.665 47.3584C57.2663 47.5848 57.9489 47.6981 58.7125 47.6981C59.6003 47.6981 60.2828 47.5376 60.7601 47.2168C61.2469 46.896 61.4903 46.4337 61.4903 45.8298C61.4903 45.3202 61.2612 44.9098 60.803 44.5984C60.3544 44.2776 59.5812 43.9992 58.4834 43.7633C57.1088 43.4708 56.1208 43.0981 55.5195 42.6452C54.9276 42.1922 54.6317 41.5978 54.6317 40.8618C54.6317 40.0786 54.961 39.4606 55.6197 39.0076C56.2784 38.5547 57.1757 38.3283 58.3116 38.3283C59.1898 38.3283 59.9773 38.4792 60.6741 38.7812C61.371 39.0831 61.8578 39.4889 62.1346 39.9984C62.1824 40.0928 62.2062 40.173 62.2062 40.239C62.2062 40.3806 62.1346 40.4938 61.9915 40.5787C61.9342 40.607 61.8674 40.6212 61.791 40.6212C61.5905 40.6212 61.4426 40.5457 61.3471 40.3947C61.0894 39.989 60.698 39.6776 60.173 39.4606C59.6575 39.2435 59.0371 39.135 58.3116 39.135C57.3857 39.135 56.6936 39.2813 56.2354 39.5738C55.7867 39.8569 55.5624 40.2862 55.5624 40.8618C55.5624 41.2015 55.6531 41.4893 55.8345 41.7252C56.0158 41.9611 56.3165 42.1687 56.7365 42.3479C57.1661 42.5272 57.7532 42.7018 58.4977 42.8716C59.8819 43.1924 60.8794 43.584 61.4903 44.0464C62.1108 44.5087 62.421 45.1032 62.421 45.8298C62.421 46.6601 62.0869 47.3159 61.4187 47.7971C60.7601 48.2784 59.858 48.519 58.7125 48.519Z" fill="#D24732"/>
<path d="M77.7098 48.519C76.7743 48.519 75.9247 48.3114 75.1611 47.8962C74.3974 47.4716 73.7913 46.8771 73.3426 46.1128C72.894 45.3391 72.6696 44.4427 72.6696 43.4236C72.6696 42.4046 72.8892 41.5081 73.3283 40.7344C73.7769 39.9607 74.3831 39.3662 75.1467 38.951C75.9199 38.5359 76.7743 38.3283 77.7098 38.3283C78.6452 38.3283 79.4948 38.5359 80.2585 38.951C81.0317 39.3662 81.6426 39.9607 82.0912 40.7344C82.5399 41.5081 82.7642 42.4046 82.7642 43.4236C82.7642 44.4427 82.5399 45.3391 82.0912 46.1128C81.6426 46.8771 81.0317 47.4716 80.2585 47.8962C79.4948 48.3114 78.6452 48.519 77.7098 48.519ZM77.7098 47.7122C78.4925 47.7122 79.1941 47.5471 79.8146 47.2168C80.4446 46.8771 80.941 46.3865 81.3037 45.7448C81.6665 45.0938 81.8478 44.32 81.8478 43.4236C81.8478 42.5178 81.6617 41.744 81.2894 41.1024C80.9267 40.4513 80.4303 39.9607 79.8003 39.6304C79.1798 39.3002 78.483 39.1303 77.7098 39.1209C76.927 39.1209 76.2254 39.2907 75.6049 39.6304C74.9845 39.9607 74.4929 40.4513 74.1301 41.1024C73.7674 41.7535 73.586 42.5272 73.586 43.4236C73.586 44.32 73.7674 45.0938 74.1301 45.7448C74.4929 46.3865 74.9845 46.8771 75.6049 47.2168C76.2254 47.5471 76.927 47.7122 77.7098 47.7122Z" fill="#D24732"/>
<path d="M95.1685 48.3774C94.6149 48.3774 94.1853 48.2312 93.8799 47.9387C93.5744 47.6462 93.4217 47.2451 93.4217 46.7356V38.8378C93.4217 38.6774 93.4599 38.5547 93.5362 38.4698C93.6126 38.3754 93.7224 38.3283 93.8656 38.3283C94.0183 38.3283 94.1328 38.3754 94.2092 38.4698C94.2951 38.5547 94.3381 38.6774 94.3381 38.8378V46.7639C94.3381 47.0187 94.4097 47.2215 94.5529 47.3725C94.696 47.5235 94.8869 47.599 95.1256 47.599H99.9223C100.256 47.599 100.423 47.7311 100.423 47.9953C100.423 48.118 100.381 48.2123 100.295 48.2784C100.209 48.3444 100.085 48.3774 99.9223 48.3774H95.1685Z" fill="#D24732"/>
<path d="M114.3 48.519C113.03 48.519 112.028 48.1557 111.293 47.4291C110.567 46.7026 110.204 45.7024 110.204 44.4285V38.8378C110.204 38.6774 110.243 38.5547 110.319 38.4698C110.405 38.3754 110.519 38.3283 110.663 38.3283C110.806 38.3283 110.916 38.3754 110.992 38.4698C111.078 38.5547 111.121 38.6774 111.121 38.8378V44.471C111.121 45.5089 111.398 46.311 111.951 46.8771C112.515 47.4339 113.312 47.7122 114.343 47.7122C115.364 47.7122 116.161 47.4291 116.734 46.863C117.306 46.2874 117.593 45.4901 117.593 44.471V38.8378C117.593 38.6774 117.636 38.5547 117.722 38.4698C117.808 38.3754 117.922 38.3283 118.065 38.3283C118.209 38.3283 118.318 38.3754 118.395 38.4698C118.471 38.5547 118.509 38.6774 118.509 38.8378V44.4285C118.509 45.2495 118.337 45.9713 117.994 46.5941C117.66 47.2074 117.173 47.6839 116.533 48.0236C115.903 48.3538 115.159 48.519 114.3 48.519Z" fill="#D24732"/>
<path d="M133.275 48.519C132.969 48.519 132.816 48.3491 132.816 48.0094V39.2341H129.437C129.113 39.2341 128.95 39.1114 128.95 38.8661C128.95 38.7246 128.989 38.6255 129.065 38.5689C129.151 38.5028 129.275 38.4698 129.437 38.4698H137.126C137.451 38.4698 137.613 38.6019 137.613 38.8661C137.613 39.1114 137.451 39.2341 137.126 39.2341H133.747V48.0094C133.747 48.1699 133.704 48.2925 133.618 48.3774C133.532 48.4718 133.418 48.519 133.275 48.519Z" fill="#D24732"/>
<path d="M148.999 48.519C148.856 48.519 148.742 48.4718 148.656 48.3774C148.579 48.2925 148.541 48.1699 148.541 48.0094V38.8378C148.541 38.4981 148.694 38.3283 148.999 38.3283C149.142 38.3283 149.252 38.3754 149.329 38.4698C149.415 38.5547 149.457 38.6774 149.457 38.8378V48.0094C149.457 48.1699 149.415 48.2925 149.329 48.3774C149.252 48.4718 149.142 48.519 148.999 48.519Z" fill="#D24732"/>
<path d="M165.579 48.519C164.643 48.519 163.794 48.3114 163.03 47.8962C162.266 47.4716 161.66 46.8771 161.212 46.1128C160.763 45.3391 160.539 44.4427 160.539 43.4236C160.539 42.4046 160.758 41.5081 161.197 40.7344C161.646 39.9607 162.252 39.3662 163.016 38.951C163.789 38.5359 164.643 38.3283 165.579 38.3283C166.514 38.3283 167.364 38.5359 168.127 38.951C168.901 39.3662 169.512 39.9607 169.96 40.7344C170.409 41.5081 170.633 42.4046 170.633 43.4236C170.633 44.4427 170.409 45.3391 169.96 46.1128C169.512 46.8771 168.901 47.4716 168.127 47.8962C167.364 48.3114 166.514 48.519 165.579 48.519ZM165.579 47.7122C166.361 47.7122 167.063 47.5471 167.684 47.2168C168.314 46.8771 168.81 46.3865 169.173 45.7448C169.535 45.0938 169.717 44.32 169.717 43.4236C169.717 42.5178 169.531 41.744 169.158 41.1024C168.796 40.4513 168.299 39.9607 167.669 39.6304C167.049 39.3002 166.352 39.1303 165.579 39.1209C164.796 39.1209 164.094 39.2907 163.474 39.6304C162.853 39.9607 162.362 40.4513 161.999 41.1024C161.636 41.7535 161.455 42.5272 161.455 43.4236C161.455 44.32 161.636 45.0938 161.999 45.7448C162.362 46.3865 162.853 46.8771 163.474 47.2168C164.094 47.5471 164.796 47.7122 165.579 47.7122Z" fill="#D24732"/>
<path d="M181.285 48.519C181.142 48.519 181.027 48.4718 180.941 48.3774C180.865 48.2925 180.827 48.1699 180.827 48.0094V42.1498C180.827 40.9609 181.194 40.0267 181.929 39.3473C182.664 38.668 183.676 38.3283 184.965 38.3283C186.244 38.3283 187.251 38.668 187.986 39.3473C188.721 40.0267 189.089 40.9609 189.089 42.1498V48.0094C189.089 48.3491 188.936 48.519 188.63 48.519C188.487 48.519 188.373 48.4718 188.287 48.3774C188.21 48.2925 188.172 48.1699 188.172 48.0094V42.1073C188.172 41.1637 187.891 40.4325 187.327 39.9135C186.774 39.3851 185.986 39.1209 184.965 39.1209C183.953 39.1209 183.161 39.3851 182.588 39.9135C182.025 40.4419 181.743 41.1732 181.743 42.1073V48.0094C181.743 48.1699 181.7 48.2925 181.614 48.3774C181.538 48.4718 181.428 48.519 181.285 48.519Z" fill="#D24732"/>
<path d="M203.984 48.519C203.077 48.519 202.242 48.3633 201.479 48.0519C200.724 47.7405 200.152 47.3206 199.76 46.7922C199.703 46.7167 199.674 46.6318 199.674 46.5374C199.674 46.4053 199.736 46.2921 199.861 46.1978C199.927 46.1506 199.994 46.127 200.061 46.127C200.195 46.127 200.333 46.2072 200.476 46.3676C200.849 46.7922 201.335 47.1225 201.937 47.3584C202.538 47.5848 203.221 47.6981 203.984 47.6981C204.872 47.6981 205.555 47.5376 206.032 47.2168C206.519 46.896 206.762 46.4337 206.762 45.8298C206.762 45.3202 206.533 44.9098 206.075 44.5984C205.626 44.2776 204.853 43.9992 203.755 43.7633C202.381 43.4708 201.393 43.0981 200.791 42.6452C200.199 42.1922 199.904 41.5978 199.904 40.8618C199.904 40.0786 200.233 39.4606 200.891 39.0076C201.55 38.5547 202.447 38.3283 203.583 38.3283C204.462 38.3283 205.249 38.4792 205.946 38.7812C206.643 39.0831 207.13 39.4889 207.406 39.9984C207.454 40.0928 207.478 40.173 207.478 40.239C207.478 40.3806 207.406 40.4938 207.263 40.5787C207.206 40.607 207.139 40.6212 207.063 40.6212C206.862 40.6212 206.714 40.5457 206.619 40.3947C206.361 39.989 205.97 39.6776 205.445 39.4606C204.929 39.2435 204.309 39.135 203.583 39.135C202.657 39.135 201.965 39.2813 201.507 39.5738C201.059 39.8569 200.834 40.2862 200.834 40.8618C200.834 41.2015 200.925 41.4893 201.106 41.7252C201.288 41.9611 201.588 42.1687 202.008 42.3479C202.438 42.5272 203.025 42.7018 203.77 42.8716C205.154 43.1924 206.151 43.584 206.762 44.0464C207.383 44.5087 207.693 45.1032 207.693 45.8298C207.693 46.6601 207.359 47.3159 206.691 47.7971C206.032 48.2784 205.13 48.519 203.984 48.519Z" fill="#D24732"/>
<defs>
<linearGradient id="paint0_linear_101_22" x1="208.713" y1="-8.48663e-06" x2="57.6723" y2="123.495" gradientUnits="userSpaceOnUse">
<stop stop-color="#EC4D37"/>
<stop offset="1" stop-color="#FF624C"/>
</linearGradient>
</defs>
</svg>
