<svg width="24" height="24" viewBox="0 0 24 24" fill="none" xmlns="http://www.w3.org/2000/svg">
<path d="M11.9717 2.16016C8.08183 2.16016 4.9248 5.00148 4.9248 8.50239C4.9248 14.1399 11.9717 21.8915 11.9717 21.8915C11.9717 21.8915 19.0187 14.1399 19.0187 8.50239C19.0187 5.00148 15.8616 2.16016 11.9717 2.16016ZM11.9717 12.0258C11.5973 12.0327 11.2252 11.9648 10.8773 11.8263C10.5294 11.6877 10.2126 11.4812 9.94537 11.2188C9.67816 10.9565 9.46591 10.6435 9.32101 10.2981C9.17612 9.95279 9.1015 9.58205 9.1015 9.20755C9.1015 8.83305 9.17612 8.46231 9.32101 8.11698C9.46591 7.77165 9.67816 7.45865 9.94537 7.19627C10.2126 6.93389 10.5294 6.72738 10.8773 6.58882C11.2252 6.45026 11.5973 6.38241 11.9717 6.38925C12.7103 6.40274 13.414 6.70559 13.9315 7.23266C14.4491 7.75972 14.739 8.46888 14.739 9.20755C14.739 9.94622 14.4491 10.6554 13.9315 11.1824C13.414 11.7095 12.7103 12.0124 11.9717 12.0258Z" fill="white"/>
</svg>
