<svg width="222" height="199" viewBox="0 0 222 199" fill="none" xmlns="http://www.w3.org/2000/svg">
<g clip-path="url(#clip0_364_288)">
<rect width="222" height="199" rx="3.34326" fill="#343741"/>
<rect y="167" width="222" height="32" fill="#FB5C46"/>
<g filter="url(#filter0_d_364_288)">
<path d="M85.274 179.411L86.4403 173.236H87.9953L89.1463 179.411H87.8886L87.6828 178.107H86.7757L86.5622 179.411H85.274ZM86.8976 177.292H87.5532L87.2254 174.883L86.8976 177.292ZM89.7697 179.411V173.236H91.4695C91.8862 173.236 92.2471 173.282 92.552 173.374C92.8569 173.465 93.0932 173.63 93.2609 173.869C93.4336 174.103 93.52 174.436 93.52 174.868C93.52 175.122 93.4997 175.348 93.459 175.546C93.4184 175.744 93.3422 175.917 93.2304 176.064C93.1237 176.207 92.9687 176.326 92.7654 176.423L93.6115 179.411H92.2013L91.5229 176.644H91.1341V179.411H89.7697ZM91.1341 175.858H91.5153C91.7084 175.858 91.8583 175.825 91.965 175.759C92.0717 175.688 92.1454 175.589 92.1861 175.462C92.2318 175.33 92.2547 175.172 92.2547 174.99C92.2547 174.725 92.2064 174.519 92.1098 174.372C92.0133 174.225 91.8354 174.151 91.5763 174.151H91.1341V175.858ZM94.3174 179.411L94.4241 173.236H95.8877L96.5661 176.827L97.2979 173.236H98.7081L98.8148 179.411H97.8467L97.7324 175.302L97.0158 179.411H96.1545L95.3922 175.272L95.3007 179.411H94.3174ZM99.715 179.411V173.236H101.079V179.411H99.715ZM103.639 179.502C103.253 179.502 102.93 179.434 102.671 179.296C102.412 179.159 102.216 178.948 102.084 178.664C101.952 178.374 101.878 178 101.863 177.543L103.029 177.368C103.034 177.632 103.057 177.845 103.098 178.008C103.144 178.171 103.205 178.288 103.281 178.359C103.362 178.43 103.459 178.465 103.57 178.465C103.713 178.465 103.804 178.417 103.845 178.321C103.891 178.224 103.913 178.122 103.913 178.016C103.913 177.762 103.852 177.548 103.73 177.375C103.609 177.198 103.443 177.02 103.235 176.842L102.701 176.377C102.468 176.179 102.269 175.955 102.107 175.706C101.949 175.452 101.871 175.139 101.871 174.768C101.871 174.245 102.026 173.846 102.336 173.572C102.646 173.292 103.067 173.152 103.601 173.152C103.931 173.152 104.195 173.208 104.394 173.32C104.597 173.432 104.749 173.579 104.851 173.762C104.958 173.94 105.029 174.131 105.064 174.334C105.105 174.532 105.128 174.723 105.133 174.906L103.959 175.05C103.954 174.868 103.941 174.71 103.921 174.578C103.906 174.441 103.87 174.337 103.814 174.265C103.758 174.189 103.672 174.151 103.555 174.151C103.428 174.151 103.334 174.204 103.273 174.311C103.217 174.418 103.189 174.525 103.189 174.631C103.189 174.86 103.243 175.048 103.349 175.195C103.461 175.338 103.606 175.488 103.784 175.645L104.295 176.095C104.564 176.323 104.79 176.583 104.973 176.872C105.161 177.162 105.255 177.52 105.255 177.947C105.255 178.237 105.189 178.501 105.057 178.74C104.925 178.974 104.737 179.159 104.493 179.296C104.254 179.434 103.969 179.502 103.639 179.502ZM105.939 179.411V173.236H107.303V175.737H108.256V173.236H109.628V179.411H108.256V176.712H107.303V179.411H105.939ZM112.221 179.411L113.387 173.236H114.942L116.094 179.411H114.836L114.63 178.107H113.723L113.509 179.411H112.221ZM113.845 177.292H114.5L114.173 174.883L113.845 177.292ZM116.946 179.411V174.25H116.016V173.236H119.24V174.25H118.318V179.411H116.946ZM120.34 179.411V174.25H119.41V173.236H122.635V174.25H121.712V179.411H120.34ZM122.606 179.411L123.772 173.236H125.327L126.478 179.411H125.22L125.014 178.107H124.107L123.894 179.411H122.606ZM124.229 177.292H124.885L124.557 174.883L124.229 177.292Z" fill="white"/>
</g>
<g opacity="0.7">
<path d="M196.717 -19.0562H241.182V3.17652C241.182 15.4553 231.228 25.4092 218.949 25.4092C206.671 25.4092 196.717 15.4553 196.717 3.17652V-19.0562Z" fill="#1D1E24"/>
<rect x="206.881" y="8.89355" width="7.94024" height="0.635219" fill="white"/>
<rect x="206.88" y="10.4985" width="7.94024" height="0.635219" fill="white"/>
<rect x="206.88" y="12.103" width="7.94024" height="0.635219" fill="white"/>
<rect x="206.88" y="13.708" width="7.94024" height="0.635219" fill="white"/>
</g>
</g>
<defs>
<filter id="filter0_d_364_288" x="84.9397" y="172.818" width="41.8725" height="7.01826" filterUnits="userSpaceOnUse" color-interpolation-filters="sRGB">
<feFlood flood-opacity="0" result="BackgroundImageFix"/>
<feColorMatrix in="SourceAlpha" type="matrix" values="0 0 0 0 0 0 0 0 0 0 0 0 0 0 0 0 0 0 127 0" result="hardAlpha"/>
<feOffset/>
<feGaussianBlur stdDeviation="0.167163"/>
<feComposite in2="hardAlpha" operator="out"/>
<feColorMatrix type="matrix" values="0 0 0 0 1 0 0 0 0 1 0 0 0 0 1 0 0 0 1 0"/>
<feBlend mode="normal" in2="BackgroundImageFix" result="effect1_dropShadow_364_288"/>
<feBlend mode="normal" in="SourceGraphic" in2="effect1_dropShadow_364_288" result="shape"/>
</filter>
<clipPath id="clip0_364_288">
<rect width="222" height="199" rx="3.34326" fill="white"/>
</clipPath>
</defs>
</svg>
