<svg width="30" height="30" viewBox="0 0 30 30" fill="none" xmlns="http://www.w3.org/2000/svg">
<path d="M24.8499 13.7559H27.2783C27.2783 7.52726 22.5758 2.82965 16.3386 2.82965V5.25798C21.2706 5.25798 24.8499 8.83127 24.8499 13.7559Z" fill="white"/>
<path d="M16.3507 10.1147C18.9041 10.1147 19.9932 11.2038 19.9932 13.7572H22.4216C22.4216 9.84151 20.2664 7.68636 16.3507 7.68636V10.1147ZM20.5056 16.7234C20.2723 16.5113 19.9657 16.3982 19.6506 16.408C19.3355 16.4177 19.0365 16.5495 18.8167 16.7756L15.9112 19.7637C15.2118 19.6301 13.8058 19.1918 12.3586 17.7481C10.9113 16.2997 10.473 14.89 10.343 14.1955L13.3287 11.2888C13.555 11.0692 13.687 10.7701 13.6968 10.4549C13.7065 10.1397 13.5932 9.83306 13.3809 9.59989L8.89455 4.66673C8.68212 4.43283 8.38688 4.29095 8.07153 4.27123C7.75618 4.25151 7.44556 4.35549 7.20564 4.5611L4.5709 6.82066C4.36099 7.03134 4.2357 7.31173 4.2188 7.60865C4.20058 7.9122 3.85333 15.1025 9.42878 20.6804C14.2927 25.5431 20.3854 25.8988 22.0634 25.8988C22.3086 25.8988 22.4592 25.8916 22.4993 25.8891C22.7961 25.8725 23.0764 25.7467 23.286 25.5358L25.5444 22.8999C25.7502 22.6601 25.8543 22.3496 25.8348 22.0342C25.8154 21.7189 25.6737 21.4235 25.44 21.2109L20.5056 16.7234Z" fill="white"/>
</svg>
