<svg width="11" height="12" viewBox="0 0 11 12" fill="none" xmlns="http://www.w3.org/2000/svg">
<path d="M10.5849 8.89792C10.5849 8.89135 10.5849 8.88642 10.5849 8.88313C10.5849 8.87985 10.5849 8.87492 10.5849 8.86835C10.5849 8.84864 10.5833 8.82728 10.58 8.80429C10.5767 8.78129 10.5718 8.75994 10.5652 8.74022C10.5389 8.66795 10.4584 8.59567 10.3237 8.5234C10.189 8.45112 10.0856 8.39856 10.0133 8.3657C9.8096 8.25401 9.60592 8.14066 9.40223 8.02568C9.19854 7.9107 8.99486 7.79407 8.79117 7.6758C8.69919 7.61667 8.59734 7.54768 8.48564 7.46883C8.37395 7.38998 8.26225 7.35056 8.15055 7.35056C7.93372 7.35056 7.68404 7.56574 7.40151 7.99611C7.11898 8.42648 6.88244 8.64167 6.69189 8.64167C6.57362 8.62195 6.46357 8.58746 6.36173 8.53818C6.25988 8.4889 6.16297 8.43141 6.07098 8.3657C5.76217 8.19487 5.46649 8.00433 5.18396 7.79407C4.90143 7.59038 4.63861 7.36699 4.3955 7.12388C4.15239 6.88077 3.92571 6.62123 3.71545 6.34527C3.51177 6.06931 3.32779 5.77692 3.16353 5.46811L3.14382 5.43854C3.07811 5.34655 3.02226 5.24964 2.97627 5.1478C2.93028 5.04595 2.89414 4.93918 2.86786 4.82748V4.81763C2.86786 4.62708 3.08304 4.39054 3.51341 4.10801C3.94378 3.82548 4.15896 3.5758 4.15896 3.35897C4.15896 3.24727 4.11954 3.13558 4.04069 3.02388C3.96185 2.91218 3.89286 2.81034 3.83372 2.71835C3.71545 2.51466 3.59882 2.31098 3.48384 2.10729C3.36886 1.90361 3.25552 1.69992 3.14382 1.49623C3.11096 1.42396 3.0584 1.32047 2.98612 1.18578C2.91385 1.05108 2.84157 0.970592 2.7693 0.94431C2.74959 0.937739 2.72823 0.932812 2.70524 0.929526C2.68224 0.926241 2.66088 0.924599 2.64117 0.924599C2.6346 0.924599 2.62967 0.924599 2.62639 0.924599C2.6231 0.924599 2.61818 0.924599 2.61161 0.924599C2.4342 0.937739 2.26008 0.964022 2.08925 1.00344C1.91842 1.04287 1.75415 1.09215 1.59646 1.15128H1.61617C1.45191 1.24984 1.30407 1.37304 1.17266 1.52087C1.04125 1.66871 0.93941 1.83133 0.867134 2.00873L0.857278 2.01859C0.74558 2.20913 0.656878 2.41775 0.591172 2.64443C0.525467 2.87111 0.492615 3.10601 0.492615 3.34912V3.35897C0.518897 3.70064 0.576389 4.03081 0.665091 4.34948C0.753793 4.66815 0.867134 4.97532 1.00511 5.27099L0.985403 5.23157C1.07082 5.47468 1.16445 5.70136 1.26629 5.91162C1.36814 6.12187 1.47819 6.32228 1.59646 6.51282L1.58661 6.48325C1.81 6.83149 2.05311 7.1633 2.31593 7.47869C2.57218 7.79407 2.84157 8.09467 3.12411 8.38049C3.40664 8.66631 3.70231 8.93405 4.01112 9.18373C4.32651 9.43998 4.64846 9.67981 4.97699 9.9032L5.02627 9.93277C5.20367 10.0379 5.39422 10.1397 5.5979 10.2383C5.80159 10.3369 6.01185 10.4256 6.22867 10.5044L6.27795 10.5241C6.55391 10.6555 6.84794 10.7639 7.16004 10.8494C7.47214 10.9348 7.79574 10.9906 8.13084 11.0169H8.15055C8.40023 11.0103 8.63841 10.9758 8.86509 10.9134C9.09177 10.851 9.30367 10.7607 9.50079 10.6424L9.49093 10.6522C9.67491 10.5734 9.83917 10.4699 9.98372 10.3418C10.1283 10.2137 10.2531 10.0675 10.3582 9.9032V9.89335C10.4174 9.7488 10.4667 9.59275 10.5061 9.4252C10.5455 9.25765 10.5718 9.08518 10.5849 8.90777V8.89792Z" fill="black"/>
</svg>
