<svg width="24" height="24" viewBox="0 0 24 24" fill="none" xmlns="http://www.w3.org/2000/svg">
<path d="M21.7905 16.8602C21.5612 16.6159 20.7494 15.8915 19.2564 14.934C17.7531 13.9663 16.6443 13.3649 16.3268 13.224C16.2988 13.2118 16.2681 13.2073 16.2378 13.2111C16.2075 13.2149 16.1789 13.2268 16.1548 13.2456C15.6745 13.6286 15.2005 14.0195 14.7332 14.4182C14.4354 14.6747 14.4354 14.6747 14.1901 14.5949C13.7607 14.4539 12.4256 13.7445 11.2614 12.5785C10.0982 11.4125 9.35218 10.0435 9.21124 9.61409C9.13138 9.3698 9.13138 9.3698 9.38788 9.07101C9.42735 9.02403 10.1612 8.16242 10.5614 7.65035C10.5802 7.62611 10.5921 7.59722 10.5957 7.56677C10.5994 7.53632 10.5947 7.50545 10.5821 7.47746C10.4421 7.15894 9.83983 6.05116 8.87299 4.54782C7.91461 3.05575 7.19112 2.24489 6.94683 2.01469C6.92421 1.99351 6.8963 1.97884 6.86603 1.97223C6.83576 1.96561 6.80427 1.9673 6.77489 1.9771C5.91893 2.27097 5.09303 2.64601 4.30846 3.09709C3.55126 3.53734 2.83439 4.04355 2.1662 4.60983C2.14264 4.62966 2.12494 4.65553 2.115 4.68467C2.10507 4.71382 2.10328 4.74512 2.10982 4.7752C2.2019 5.20366 2.64163 6.99451 4.00779 9.47503C5.40027 12.0063 6.36616 13.3039 8.41165 15.3428C10.4571 17.3817 11.7951 18.4049 14.3301 19.7983C16.8106 21.1635 18.6015 21.6033 19.03 21.6944C19.06 21.7009 19.0912 21.6993 19.1203 21.6895C19.1494 21.6797 19.1753 21.6623 19.1953 21.639C19.7617 20.9708 20.2679 20.2539 20.7081 19.4967C21.1591 18.7121 21.5349 17.8862 21.829 17.0303C21.8383 17.0011 21.8398 16.97 21.8332 16.9402C21.8266 16.9103 21.8112 16.8827 21.7905 16.8602Z" fill="white"/>
</svg>
