<svg width="19" height="15" viewBox="0 0 19 15" fill="none" xmlns="http://www.w3.org/2000/svg">
<path d="M18.2782 2.08828C17.6084 2.37278 16.8795 2.57753 16.1288 2.65728C16.9082 2.20129 17.4919 1.48091 17.7704 0.631279C17.039 1.05973 16.2377 1.36017 15.4022 1.51927C15.0529 1.15163 14.6306 0.858751 14.1614 0.658883C13.6922 0.459015 13.1862 0.356441 12.675 0.357553C10.6066 0.357553 8.94319 2.00853 8.94319 4.03453C8.94319 4.31903 8.97821 4.60354 9.03512 4.87726C5.93806 4.71777 3.17587 3.26077 1.33952 1.03001C1.00492 1.5928 0.829573 2.2336 0.831731 2.88574C0.831731 4.1617 1.49054 5.28677 2.49517 5.94846C1.90313 5.9255 1.32495 5.76525 0.807656 5.48075V5.52601C0.807656 7.31278 2.09026 8.79348 3.79966 9.13402C3.4787 9.21612 3.14852 9.25812 2.81692 9.25903C2.57397 9.25903 2.34415 9.23532 2.11214 9.20299C2.58491 10.66 3.96163 11.7183 5.60099 11.7527C4.31839 12.742 2.71186 13.324 0.967433 13.324C0.654444 13.324 0.365531 13.3132 0.0656738 13.2787C1.72036 14.324 3.68366 14.9275 5.79798 14.9275C12.6619 14.9275 16.4177 9.328 16.4177 4.46775C16.4177 4.30826 16.4177 4.14876 16.4068 3.98927C17.1334 3.46553 17.7704 2.81677 18.2782 2.08828Z" fill="white"/>
</svg>
