<svg width="40" height="24" viewBox="0 0 40 24" fill="none" xmlns="http://www.w3.org/2000/svg">
<path d="M6.34609 2.77059H16.5867V0.804565C16.5867 0.36002 16.9461 0 17.3898 0H23.3906C23.8344 0 24.1937 0.36002 24.1937 0.804565V2.77059H33.6555C33.818 2.30738 34.0823 1.88666 34.4289 1.53947L34.4352 1.53321C35.0266 0.943095 35.8406 0.577597 36.7367 0.577597C37.6328 0.577597 38.4477 0.943877 39.0406 1.53556L39.0461 1.54182C39.6359 2.13507 40 2.94981 40 3.84751C40 4.74756 39.6344 5.56387 39.0438 6.15555L39.0422 6.15712L39.0438 6.15946C38.4531 6.75037 37.6375 7.11665 36.7367 7.11665C35.8352 7.11665 35.0195 6.75037 34.4289 6.15946L34.3711 6.09607C34.0529 5.7603 33.8091 5.36106 33.6555 4.92444H29.1117C30.6002 5.78634 31.9549 6.86159 33.1328 8.11609C35.5063 10.6448 37.1656 13.9093 37.7719 17.6597H38.993C39.5258 17.6597 39.957 18.0925 39.957 18.6263V23.0342C39.957 23.5672 39.5258 24 38.993 24H34.6437C34.1109 24 33.6789 23.5672 33.6789 23.0342V18.6263C33.6789 18.0925 34.1109 17.6597 34.6437 17.6597H35.5992C35.0211 14.4955 33.5883 11.739 31.5703 9.58904C29.5906 7.4798 27.0469 5.95285 24.1937 5.19602V6.89046C24.1937 7.33422 23.8344 7.69503 23.3906 7.69503H17.3898C16.9461 7.69503 16.5867 7.33422 16.5867 6.89046V5.20072C13.668 5.98728 11.0766 7.57763 9.08125 9.77688C7.15547 11.8971 5.78437 14.5839 5.20547 17.6597H6.1375C6.66953 17.6597 7.10156 18.0925 7.10156 18.6263V23.0342C7.10156 23.5672 6.66953 24 6.1375 24H1.78828C1.25547 24 0.823438 23.5672 0.823438 23.0342V18.6263C0.823438 18.0925 1.25547 17.6597 1.78828 17.6597H3.02969C3.63828 14.0095 5.22734 10.8248 7.49297 8.32897C8.71458 6.98352 10.1363 5.83514 11.7078 4.92444H6.34453C6.18197 5.38764 5.91766 5.80836 5.57109 6.15555L5.56562 6.16103C4.97344 6.75193 4.15937 7.11665 3.26406 7.11665C2.36719 7.11665 1.55234 6.75115 0.959375 6.15868L0.953906 6.1532C0.364062 5.55995 0 4.74443 0 3.84751C0 2.94903 0.364844 2.13272 0.95625 1.53947L0.961719 1.53321C1.55391 0.943095 2.36797 0.577597 3.26406 0.577597C4.16094 0.577597 4.97734 0.94466 5.56953 1.53713L5.57109 1.53556C5.91484 1.87993 6.18203 2.30099 6.34609 2.77059Z" fill="#FB5C46"/>
</svg>
