<svg width="18" height="13" viewBox="0 0 18 13" fill="none" xmlns="http://www.w3.org/2000/svg">
<path d="M17.2389 5.8925L11.7061 0.341683C11.61 0.25758 11.4988 0.215528 11.3727 0.215528C11.2465 0.215528 11.1354 0.25758 11.0393 0.341683C10.9552 0.437801 10.9131 0.548938 10.9131 0.675093C10.9131 0.801248 10.9552 0.912384 11.0393 1.0085L15.7971 5.74832H0.766671C0.634509 5.74832 0.523372 5.79338 0.433262 5.88349C0.343151 5.9736 0.298096 6.08473 0.298096 6.2169C0.298096 6.33704 0.343151 6.44217 0.433262 6.53228C0.523372 6.62239 0.634509 6.66745 0.766671 6.66745H15.7971L11.0573 11.4253C10.9612 11.5094 10.9131 11.6175 10.9131 11.7497C10.9131 11.8818 10.9612 11.99 11.0573 12.0741C11.0933 12.1221 11.1414 12.1582 11.2015 12.1822C11.2616 12.2062 11.3216 12.2183 11.3817 12.2183C11.4418 12.2183 11.4988 12.2062 11.5529 12.1822C11.607 12.1582 11.658 12.1221 11.7061 12.0741L17.2389 6.54129C17.323 6.44518 17.365 6.33404 17.365 6.20788C17.365 6.08173 17.323 5.9766 17.2389 5.8925Z" fill="black"/>
</svg>
