<svg width="10" height="12" viewBox="0 0 10 12" fill="none" xmlns="http://www.w3.org/2000/svg">
<path d="M10.0073 9.31186C10.0073 8.93734 9.97772 8.53325 9.91858 8.0996C9.86602 7.65937 9.75761 7.25036 9.59334 6.87256C9.42908 6.49475 9.19911 6.18101 8.90344 5.93133C8.60777 5.67508 8.21682 5.54695 7.7306 5.54695C7.63204 5.54695 7.37744 5.69972 6.96678 6.00525C6.55612 6.31078 6.02884 6.46354 5.38493 6.46354C4.74102 6.46354 4.21374 6.31078 3.80308 6.00525C3.39242 5.69972 3.13453 5.54695 3.0294 5.54695C2.54975 5.54695 2.16209 5.67508 1.86642 5.93133C1.57075 6.18101 1.34078 6.49475 1.17652 6.87256C1.01225 7.25036 0.903839 7.65937 0.851275 8.0996C0.792141 8.53325 0.762573 8.93734 0.762573 9.31186C0.762573 9.325 0.762573 9.33978 0.762573 9.35621C0.762573 9.37264 0.762573 9.38742 0.762573 9.40056C0.762573 9.84736 0.920266 10.2284 1.23565 10.5438C1.55103 10.8592 1.92884 11.0169 2.36906 11.0169C2.39535 11.0169 2.42163 11.0169 2.44791 11.0169C2.47419 11.0169 2.50047 11.0136 2.52676 11.0071H2.5169H8.25296C8.27267 11.0136 8.29567 11.0169 8.32195 11.0169C8.34823 11.0169 8.37451 11.0169 8.40079 11.0169C8.84102 11.0169 9.21882 10.8592 9.53421 10.5438C9.84959 10.2284 10.0073 9.84736 10.0073 9.40056C10.0073 9.38742 10.0073 9.37264 10.0073 9.35621C10.0073 9.33978 10.0073 9.32171 10.0073 9.302V9.31186ZM7.90801 3.44768C7.90801 3.09944 7.8423 2.77091 7.71089 2.4621C7.57948 2.15985 7.39879 1.89375 7.16882 1.66378C6.93886 1.43381 6.67275 1.25312 6.37051 1.12171C6.06169 0.990304 5.73317 0.924599 5.38493 0.924599C5.03669 0.924599 4.70817 0.990304 4.39935 1.12171C4.09711 1.25312 3.831 1.43381 3.60103 1.66378C3.37107 1.89375 3.19038 2.15985 3.05897 2.4621C2.92756 2.77091 2.86185 3.09944 2.86185 3.44768C2.86185 3.79591 2.92756 4.12115 3.05897 4.4234C3.19038 4.73221 3.37107 5.0016 3.60103 5.23157C3.831 5.46154 4.09711 5.64223 4.39935 5.77364C4.70817 5.90505 5.03669 5.97075 5.38493 5.97075C5.73317 5.97075 6.06169 5.90505 6.37051 5.77364C6.67275 5.63566 6.93886 5.45332 7.16882 5.22664C7.39879 4.99996 7.57948 4.73221 7.71089 4.4234C7.8423 4.12115 7.90801 3.79591 7.90801 3.44768Z" fill="black"/>
</svg>
