<svg width="30" height="26" viewBox="0 0 30 26" fill="none" xmlns="http://www.w3.org/2000/svg">
<path d="M27.1567 15.0289V2.42405C27.1567 2.29275 27.1087 2.17912 27.0128 2.08317C26.9168 1.98722 26.8032 1.93925 26.6719 1.93925H2.43182C2.30052 1.93925 2.18689 1.98722 2.09094 2.08317C1.99499 2.17912 1.94702 2.29275 1.94702 2.42405V15.0289C1.94702 15.1602 1.99499 15.2738 2.09094 15.3698C2.18689 15.4657 2.30052 15.5137 2.43182 15.5137H26.6719C26.8032 15.5137 26.9168 15.4657 27.0128 15.3698C27.1087 15.2738 27.1567 15.1602 27.1567 15.0289ZM29.0959 2.42405V18.9073C29.0959 19.5739 28.8586 20.1446 28.3839 20.6193C27.9091 21.094 27.3385 21.3313 26.6719 21.3313H18.4303C18.4303 21.705 18.5111 22.0964 18.6727 22.5054C18.8343 22.9145 18.9959 23.273 19.1575 23.5811C19.3191 23.8891 19.3999 24.1088 19.3999 24.2401C19.3999 24.5027 19.3039 24.73 19.112 24.9219C18.9201 25.1138 18.6929 25.2097 18.4303 25.2097H10.6734C10.4108 25.2097 10.1836 25.1138 9.99169 24.9219C9.79979 24.73 9.70384 24.5027 9.70384 24.2401C9.70384 24.0987 9.78464 23.8765 9.94624 23.5735C10.1078 23.2705 10.2694 22.917 10.431 22.513C10.5926 22.109 10.6734 21.7151 10.6734 21.3313H2.43182C1.76522 21.3313 1.19457 21.094 0.719865 20.6193C0.245163 20.1446 0.0078125 19.5739 0.0078125 18.9073V2.42405C0.0078125 1.75744 0.245163 1.18679 0.719865 0.712091C1.19457 0.237391 1.76522 3.8147e-05 2.43182 3.8147e-05H26.6719C27.3385 3.8147e-05 27.9091 0.237391 28.3839 0.712091C28.8586 1.18679 29.0959 1.75744 29.0959 2.42405Z" fill="#FB5C46"/>
</svg>
