<svg width="89" height="90" viewBox="0 0 89 90" fill="none" xmlns="http://www.w3.org/2000/svg">
<path d="M16.3795 76.1495L10.1436 6.21094H78.664L72.4197 76.1384L44.3621 83.9174L16.3795 76.1495Z" fill="#E44F26"/>
<path d="M44.4043 77.9728L67.0779 71.6869L72.4119 11.9307H44.4043V77.9728Z" fill="#F1662A"/>
<path d="M44.4045 37.8679H33.0538L32.2712 29.0843H44.4045V20.5061H22.8965L23.1019 22.8095L25.2083 46.4462H44.4045V37.8679ZM44.4045 60.1447L44.3657 60.1558L34.8133 57.5776L34.2028 50.7367H25.5912L26.7929 64.2021L44.3657 69.0809L44.4045 69.0698V60.1447Z" fill="#EBEBEB"/>
<path d="M44.374 37.8679V46.4462H54.9365L53.943 57.5721L44.374 60.153V69.0782L61.9607 64.2021L62.0883 62.7534L64.1031 40.1714L64.314 37.8679H44.374ZM44.374 20.5061V29.0843H65.0939L65.2659 27.1583L65.6573 22.8095L65.8626 20.5061H44.374Z" fill="white"/>
</svg>
