<svg width="90" height="90" viewBox="0 0 90 90" fill="none" xmlns="http://www.w3.org/2000/svg">
<g clip-path="url(#clip0_343_1672)">
<path d="M50.1145 89.4505C48.9573 89.2479 47.7584 88.6985 47.0784 88.0907C46.6169 87.6064 46.3535 86.9668 46.3402 86.2979C46.3402 85.618 46.6871 84.6633 47.2366 83.7114C47.5697 83.1758 47.8305 82.5985 48.0165 81.9907C48.133 81.5717 48.3773 80.8917 48.566 80.4588L48.899 79.6651L48.985 74.3616C49.0294 71.4282 49.1155 68.7113 49.1876 68.2894C49.3763 67.0739 49.6927 65.8888 50.1118 64.7343L50.4309 63.9684L49.9675 63.6936C49.5484 63.4328 49.2015 63.072 47.8278 61.4374C46.1376 59.442 43.9119 58.343 40.7592 57.9683C39.7324 57.8684 38.6917 57.7935 37.651 57.7519C33.0247 57.5354 30.3799 56.5668 27.996 54.2246C26.217 52.4762 25.2929 50.4364 24.9182 47.4308C24.4131 43.3679 23.8498 41.2864 22.8091 39.5963C22.5526 39.1789 22.2571 38.7868 21.9265 38.4252L21.5075 38.0061L20.5833 38.6C20.0782 38.933 19.3678 39.3521 19.0209 39.5408C17.8636 40.1763 16.7646 40.884 15.71 41.65C13.1235 43.5288 10.3039 45.885 8.75807 47.4308C8.06427 48.1246 7.70349 48.4271 7.54252 48.3993C6.48794 48.2412 7.29553 43.6731 9.01617 40.2318C11.2142 35.7943 14.9135 31.7036 19.1929 28.9422C22.7064 26.6721 28.3873 23.5499 31.0154 22.451C35.6833 20.5 41.725 18.388 45.8601 17.2613C46.7288 17.0143 47.2616 16.7978 47.6224 16.5536C48.4328 15.9902 49.2265 15.7155 50.1367 15.7016C50.9027 15.6877 50.9749 15.6738 51.7131 15.1798C52.5817 14.6165 52.8398 14.5859 53.7085 14.8912L54.2718 15.0938L54.9656 14.6165L55.6595 14.153L56.6558 14.1669C57.4217 14.1808 57.7686 14.153 58.1017 14.0087C58.5207 13.82 58.5346 13.7922 58.6512 13.0984C58.912 11.5943 58.9398 10.8422 58.7816 9.93189C58.579 8.73299 58.5512 4.07893 58.7538 3.16588C58.9703 2.18345 59.1146 1.98086 59.8528 1.62008C60.9518 1.08446 61.7761 0.92627 63.6688 0.92627C65.9805 0.92627 67.1517 1.24542 68.0203 2.08354C68.8002 2.83563 68.9306 4.5979 68.5254 8.73299C68.2784 11.1169 68.2507 11.783 68.3228 13.3426C68.3506 14.339 68.4227 15.2798 68.4533 15.4102C68.5115 15.6572 68.5698 15.6711 69.4079 15.6849C70.2322 15.6988 70.3765 15.7432 71.1563 16.1484C71.9084 16.5397 72.4718 17.0171 72.5884 17.364C72.6022 17.4361 72.7327 17.4361 72.963 17.364C73.4098 17.2335 73.8011 17.3778 74.1203 17.7691C74.309 18.0161 74.4228 18.0578 74.8585 18.0578C75.4524 18.0578 75.6689 18.2021 76.1601 18.9264C76.3898 19.2515 76.7048 19.5069 77.0704 19.6646C77.8807 20.0698 78.9797 21.1965 79.3988 22.0929C80.0482 23.4223 80.1786 24.9681 79.7734 26.3557C79.6291 26.8774 79.6291 26.8913 79.9316 27.3964C80.5671 28.4815 80.8003 29.8109 80.5394 30.9376L80.3951 31.6037L80.828 32.0366C82.9816 34.1902 82.6624 37.7036 80.0343 40.8396C79.7405 41.1978 79.4926 41.5912 79.2961 42.0108C78.791 43.354 78.211 44.2948 77.4617 45.0746L76.6957 45.8545H75.9158C75.136 45.8545 74.037 45.5936 73.371 45.2467C73.0962 45.1024 73.0823 45.1024 73.1406 45.2744C73.3155 45.91 73.7484 48.4965 73.8927 49.9285C74.1231 52.1265 74.0509 55.3208 73.7484 56.6945C73.5273 57.7119 73.157 58.6911 72.6494 59.6002C72.3608 60.0636 72.3469 60.1635 72.4024 60.7269C72.4884 61.5206 72.3025 62.8527 71.9834 63.7325C71.592 64.7593 71.4477 65.2367 71.3617 65.7556C71.2895 66.2024 71.2895 66.2024 71.6087 66.2024C72.0278 66.2024 72.2581 66.4494 72.2581 66.9407C72.2581 67.1571 72.0694 68.3283 71.839 69.5272C71.2035 72.8963 71.1591 73.271 71.1591 76.5374C71.1452 79.9065 71.1452 79.876 71.9112 80.3811L73.6318 81.494C75.1121 82.4765 76.6973 83.2909 78.3581 83.9223C80.7725 84.877 81.1055 85.1212 81.1055 85.9315C81.1055 86.2923 81.0334 86.4228 80.7309 86.7114C79.8067 87.6078 77.9834 87.8104 74.3118 87.4191C72.4039 87.2403 70.4888 87.1486 68.5726 87.1443C63.5134 87.0722 62.7751 86.8973 62.1119 85.6402C61.7372 84.9186 61.8094 83.9778 62.3283 82.432C62.5587 81.7521 62.7613 81.0583 62.9361 80.3506C63.283 78.6743 63.0527 76.6789 62.2423 74.4255L61.5485 72.5022C60.8686 70.5512 60.4939 66.9795 60.8991 66.1719C60.9712 66.0137 61.1017 65.9832 61.4486 65.9971L61.8815 66.0415L62.2423 65.2894C62.517 64.6955 62.8195 64.307 63.6438 63.4827L64.6984 62.4281L64.6401 61.7482C64.5957 61.0988 63.7437 57.9461 63.6271 57.96C63.5827 57.96 63.3524 58.2792 63.0915 58.6816C62.456 59.6362 61.0545 61.1099 60.258 61.6455C59.9111 61.8759 59.6225 62.1506 59.6225 62.2394C59.6086 62.6307 59.2756 63.3967 58.8704 63.9295C58.4791 64.4513 58.4513 64.5373 58.5096 64.998C58.6095 65.6779 58.3931 67.8593 58.135 69.0026C57.901 69.8517 57.5811 70.6746 57.1803 71.4587C56.184 73.5263 55.4319 75.3746 55.2432 76.2293C55.1069 77.0523 55.0198 77.8826 54.9823 78.716C54.9379 79.6984 54.838 80.6531 54.7658 80.8557C54.6659 81.1304 54.6659 81.3469 54.752 81.7659C54.8241 82.0684 54.8685 82.7484 54.8519 83.284C54.838 84.0222 54.8963 84.4995 55.1127 85.3654C55.4874 86.8391 55.5595 87.766 55.3875 88.3155C55.2709 88.6624 55.1571 88.7928 54.7658 88.9815C53.8972 89.4283 51.4411 89.6753 50.1118 89.445L50.1145 89.4505ZM53.6252 88.2655C54.1303 88.1212 54.566 87.6883 54.566 87.297C54.566 87.1221 54.4217 86.617 54.2469 86.1702C53.9 85.3182 53.3061 83.062 53.3061 82.6873C53.3061 82.4986 53.3199 82.4847 53.6086 82.6429L53.9277 82.8177V82.4126C53.8814 82.0391 53.7987 81.671 53.6807 81.3136C53.406 80.4893 53.3782 80.4754 51.627 80.3728L50.442 80.3145L50.0091 80.7336C49.771 80.9786 49.5624 81.2505 49.3874 81.5439C49.1987 81.9186 49.1266 82.4847 49.2431 82.6124C49.2709 82.6568 49.5623 82.6124 49.8786 82.5402C50.0665 82.4843 50.2602 82.4508 50.4559 82.4403C50.4559 82.4542 50.1367 82.7151 49.7343 82.9898C47.9998 84.2914 47.392 85.0851 47.392 86.0981C47.392 87.1527 48.3884 87.9769 49.9508 88.2239C51.0193 88.3821 53.1007 88.4265 53.6224 88.2683L53.6252 88.2655ZM77.1425 86.5449C77.5754 86.0231 77.5172 85.4903 76.9677 84.8825C76.6485 84.5634 76.2877 84.2886 75.8826 84.0722C75.4774 83.8557 75.0722 83.6087 74.667 83.3506C73.9342 82.8756 73.1814 82.4321 72.4107 82.0213C71.7447 81.6605 71.0953 81.283 70.4598 80.8806L70.1989 80.678V76.7039C70.1989 72.7881 70.185 72.7298 69.9824 72.7881C68.9695 73.0628 67.2932 73.1933 65.1702 73.1488L62.8723 73.1211L63.2053 73.9315C63.827 75.4634 64.1461 77.5171 64.1461 79.8732C64.1461 80.7558 64.0878 81.0721 63.8714 81.6938C63.7548 81.9963 63.6549 82.3016 63.5522 82.6041C63.5078 82.7345 63.6688 82.8344 64.2599 83.0092C64.6928 83.1397 65.3284 83.2701 65.6919 83.3117L66.358 83.3839L66.2858 84.0499C66.2136 84.802 66.2997 85.5957 66.4884 85.8427C66.605 85.9871 67.0379 86.0453 69.0472 86.1314C70.5652 86.2035 72.2137 86.3617 73.5125 86.5504C74.6392 86.7253 75.8548 86.8696 76.2156 86.8696C76.8233 86.8835 76.8816 86.8557 77.1397 86.5504L77.1425 86.5449ZM54.0026 79.7816C54.0609 79.7372 54.1469 78.9574 54.1775 78.0332C54.294 75.4467 54.3939 75.0693 55.6955 72.1498C56.764 69.7658 57.3301 67.5401 57.2857 65.9638L57.258 65.023L56.8528 65.4143C56.0147 66.2524 56.5919 64.9369 57.591 63.7658C58.3431 62.8694 58.604 62.3782 58.7178 61.5845C58.776 61.2653 58.8926 61.1071 59.3838 60.7325C61.2217 59.344 62.6379 57.4724 63.4745 55.3263C63.6771 54.8046 64.1961 53.0284 64.6318 51.3799C65.4421 48.33 65.8751 47.0145 66.2664 46.4511C66.4107 46.2347 66.469 46.1903 66.4412 46.3346C66.2316 47.1097 66.0676 47.8964 65.95 48.6908C65.8334 49.3984 65.617 50.786 65.4727 51.7546C65.1979 53.7361 64.9093 55.0072 64.518 55.9896L64.2571 56.6557L64.9509 58.4485C65.6725 60.2829 66.0055 61.615 66.0638 62.8999L66.1082 63.6215L65.5448 63.738C64.8013 63.8696 64.1377 64.2845 63.6937 64.8953C63.2025 65.603 62.9278 66.183 63.0582 66.3107C63.1165 66.369 63.8242 66.4994 64.6345 66.5993C65.8917 66.7436 66.3691 66.7436 68.0314 66.6437C68.753 66.616 69.4634 66.5438 70.1711 66.4411C70.3293 66.3828 70.4903 66.0665 70.7484 65.2422C71.3423 63.3495 71.4561 62.6835 71.3839 61.3541L71.3256 60.183L71.6281 59.7917C72.3358 58.8953 72.8853 57.2773 73.1156 55.3818C73.3904 53.0701 72.8853 48.2273 71.9445 44.0644C71.4977 42.0829 71.309 40.8979 71.309 40.032V39.2661L70.6013 39.3382C68.0564 39.613 64.9787 39.5408 63.0998 39.1495C62.073 38.9469 59.4865 38.181 58.9231 37.934L58.4763 37.7314L58.418 38.2365C58.3736 38.5112 58.332 38.7859 58.2737 39.0746C58.1877 39.3771 58.2154 39.4492 58.7511 39.971C59.4171 40.6509 59.6197 40.9978 59.6197 41.4585C59.6197 41.7471 59.4615 41.9802 58.6512 42.8184C58.0701 43.4384 57.4255 43.9956 56.7279 44.4807L55.7871 45.1162L55.3819 46.5177C53.936 51.6491 53.6613 56.3171 54.616 59.6557L54.8463 60.4938L54.3828 61.071C52.6483 63.2524 51.6215 64.9147 51.4633 65.8417C51.3708 66.2981 51.2644 66.7516 51.1441 67.2015C50.7695 68.6336 50.4781 70.7288 50.3504 72.999C50.2615 74.8994 50.1366 76.798 49.9758 78.6938L49.9036 79.2571L50.6252 79.4736C51.0304 79.604 51.6381 79.7483 51.9851 79.8066C52.6345 79.9065 53.8361 79.8788 54.0221 79.7789L54.0026 79.7816ZM68.037 71.8306C69.1637 71.7585 70.1906 71.5836 70.3931 71.4116C70.4792 71.3533 70.5819 71.0508 70.6096 70.7455L70.6818 70.196L69.7854 70.3986C69.0777 70.5429 68.37 70.6289 67.6595 70.6872C65.9528 70.7594 64.2349 70.715 62.542 70.5429C61.9786 70.4569 61.9787 70.4569 62.1507 71.1923C62.295 71.7418 62.3256 71.7696 63.7992 71.8722C64.7816 71.9583 66.1554 71.9444 68.0342 71.8278L68.037 71.8306ZM67.0962 69.3163C68.5698 69.1858 70.407 68.8694 70.7678 68.6807C70.8844 68.6224 70.9843 68.406 71.0287 68.159L71.1591 67.393L71.2313 67.0322L70.8705 67.1044C69.2664 67.4374 68.0508 67.5373 65.6225 67.5373C63.2525 67.5373 62.9777 67.5235 62.3561 67.307C62.1172 67.2063 61.8628 67.1472 61.604 67.1321C61.5041 67.1904 61.4874 68.0147 61.5762 68.5919C61.6345 68.9388 61.6928 68.9971 62.0397 69.097C63.1387 69.3995 64.9898 69.4717 67.0989 69.2996L67.0962 69.3163ZM40.2708 56.2782C43.9702 55.2098 48.813 52.071 52.7732 48.1413C54.0609 46.8535 54.2191 46.6815 54.3912 46.1042L54.6215 45.366C54.6493 45.3077 54.4189 45.2078 54.1164 45.1357C53.3227 44.947 52.7149 44.4863 52.7149 44.0672C52.7149 43.8202 52.5706 43.576 52.1516 43.1264C51.4716 42.3604 51.2996 42.0274 51.2274 41.292L51.1691 40.6981L50.3588 40.1208C49.8953 39.7878 48.2773 38.8914 46.5567 38.0255C45.2466 37.3864 43.9642 36.692 42.713 35.9441C41.2671 34.9756 40.2986 33.8183 39.7491 32.4473C39.6492 32.1726 39.5187 31.9422 39.4743 31.9422C39.3578 31.9422 36.1052 35.0782 34.7176 36.5519C31.2929 40.1652 28.9368 43.3013 27.4465 46.2069C27.0718 46.9285 26.6666 47.7832 26.5501 48.0996L26.3336 48.6769L26.5945 49.6454C26.7527 50.1672 27.0857 51.0192 27.3466 51.5243C28.2568 53.3171 29.342 54.3994 31.1347 55.2819C33.058 56.2366 34.762 56.5696 37.6094 56.5252C39.1413 56.5113 39.5909 56.4669 40.268 56.2644L40.2708 56.2782ZM11.0726 43.601C13.5009 41.4474 16.8534 39.0912 20.9608 36.649C23.65 35.0449 34.0432 29.8414 38.8277 27.7156C39.6963 27.3243 40.4762 26.9635 40.5622 26.9218C40.6482 26.8636 40.8952 26.2419 41.1256 25.5481C42.1385 22.3399 42.6436 21.7044 44.4781 21.2854C44.7084 21.2271 44.7667 21.1549 44.7667 20.9246C44.7667 20.5055 45.0553 19.537 45.3023 19.104C45.491 18.771 45.491 18.7571 45.33 18.8015C45.2301 18.8293 44.6224 19.0041 43.9868 19.1928C35.1699 21.7377 27.4659 25.1179 20.8164 29.3391C13.7202 33.8488 9.6295 39.255 8.44447 45.7296L8.35844 46.2069L9.22709 45.3549C9.69055 44.8776 10.5287 44.0977 11.0782 43.6204L11.0726 43.601ZM76.4792 44.8304C77.1869 44.4696 78.2859 42.8073 78.6911 41.4918C78.8076 41.0283 79.038 40.5954 79.371 40.2346C80.4395 39.0496 81.322 36.896 81.3359 35.4224C81.3359 33.1245 80.0343 32.242 78.1416 33.2244C77.8946 33.341 77.6948 33.427 77.6642 33.3992C77.5643 33.2993 78.0972 32.7776 78.7494 32.3724C79.6014 31.809 79.7623 31.476 79.7623 30.2771C79.7749 29.308 79.4869 28.3589 78.9381 27.5601C78.6772 27.1688 78.5773 26.9107 78.6189 26.7498L78.8798 25.7812C79.2406 24.4935 79.1101 23.0199 78.5468 22.0818C77.7086 20.6665 76.6818 19.9727 75.2498 19.8561L74.4117 19.7978L74.9029 20.3473C76.3627 21.9237 77.0704 23.9024 76.7817 25.5953C76.6374 26.4639 76.507 26.636 75.6689 26.969L75.1776 27.1716L75.2359 27.8377C75.3358 28.9228 75.1499 29.7165 74.4561 31.1763C74.1092 31.9145 73.8483 32.5778 73.8788 32.6499C73.9649 32.8969 74.9195 33.3576 75.6716 33.5463L76.4098 33.7212L75.9464 33.8793C75.3386 34.0681 75.2082 34.3428 75.2082 35.3391C75.2082 36.2494 75.3386 36.6268 76.0019 37.6231C76.3044 38.0561 76.507 38.5057 76.5375 38.7638C76.5958 39.1689 76.5819 39.1967 76.2489 39.3132C75.8714 39.4192 75.4832 39.4825 75.0916 39.502C73.7318 39.588 73.6318 39.6324 73.0241 40.2096C72.4746 40.7314 72.4607 40.7591 72.4607 41.3364C72.4607 42.1301 72.7632 43.737 72.9519 43.9534C73.1989 44.2143 74.5699 44.8942 75.1055 44.9941C75.5674 45.1101 76.0558 45.0539 76.4792 44.836V44.8304ZM56.4587 43.7481C57.3412 43.0543 58.035 42.3604 58.4236 41.7665C58.6706 41.4058 58.6845 41.3336 58.5679 41.0283C58.3653 40.5649 57.036 39.366 56.2978 39.0052C55.8059 38.7848 55.2856 38.6344 54.752 38.5584L53.8417 38.4418L53.2783 37.7341C52.1072 36.2882 51.4578 35.1615 50.5308 32.9774C49.7205 31.1263 49.0128 30.044 47.886 28.9727C47.4226 28.5398 47.0923 28.179 47.1201 28.179C47.1784 28.179 47.7278 28.4538 48.3634 28.7868C49.418 29.3502 49.5484 29.3946 50.0257 29.3224C51.7464 29.1198 53.2644 27.1411 53.8139 24.3659C53.9721 23.586 54.2913 22.7895 54.6243 22.3122C54.6382 22.2983 55.3042 22.7312 56.0841 23.2946C58.0656 24.6961 58.4985 24.9126 59.6253 24.957C60.3635 24.9847 60.7825 24.9292 62.1119 24.6101C64.9454 23.9163 68.0092 23.6415 69.8742 23.8885C70.9288 24.0328 72.4468 24.4963 73.5736 25.0291C74.6864 25.5509 74.9029 25.5786 75.2637 25.2595C75.5662 24.9986 75.5662 24.957 75.5662 23.9884C75.5523 22.5564 75.0306 21.0106 74.2368 20.0865C73.8317 19.6091 72.691 18.8293 71.5615 18.2354C71.16 18.0224 70.7604 17.8059 70.3626 17.586C69.827 17.2668 69.222 17.3112 67.5735 17.7442C65.6642 18.2354 65.1591 18.2354 62.9777 17.672C61.1267 17.2085 61.0129 17.1947 59.1895 17.4833C58.221 17.6276 55.7927 17.5416 54.9823 17.3251C54.5771 17.2085 54.1719 17.0948 53.7834 16.9504C53.0757 16.6757 51.8463 16.6313 50.7334 16.8339C48.5216 17.2252 46.8453 18.4241 46.2375 20.0559C45.9184 20.8802 45.9628 21.2715 46.3819 21.5296C47.0479 21.9486 47.9277 23.092 47.9277 23.5388C47.9277 23.5666 47.7112 23.3807 47.4642 23.1198C46.8425 22.4704 46.2792 22.179 45.6131 22.179C45.1822 22.1909 44.7631 22.323 44.4032 22.5604C44.0433 22.7977 43.7569 23.1308 43.5761 23.5222C43.3816 24.0328 43.2176 24.5546 43.0849 25.0846C42.6797 26.5583 42.3189 27.3409 41.553 28.3816C40.873 29.3224 40.7731 29.7415 41.0173 30.7961C41.6251 33.4547 42.6797 34.526 47.0868 37.0265C49.3985 38.3419 50.5836 39.0801 51.4522 39.7295C52.1183 40.2207 52.1321 40.2513 52.0739 40.6259C51.9434 41.4946 52.4929 42.4326 53.578 43.1986C53.8528 43.3873 54.0248 43.5899 54.0248 43.7342C54.0248 43.9951 54.7631 44.3558 55.2959 44.3558C55.5984 44.3558 55.8315 44.2254 56.4532 43.7481H56.4587ZM74.2812 38.8748C75.9575 38.933 76.0435 38.8026 75.1499 37.7619C74.2091 36.6768 73.951 35.797 74.2979 34.8285L74.4422 34.4538L73.8483 34.1652C73.6457 34.0653 73.4431 33.9626 73.2405 33.8904C73.1406 34.2818 73.0379 34.6564 72.9519 35.0477C72.7354 35.9302 72.4746 38.2143 72.4607 39.1828C72.4607 39.2688 72.605 39.2411 72.852 39.0829C73.1989 38.8803 73.3737 38.8526 74.284 38.8803L74.2812 38.8748ZM68.6586 38.7887C69.6716 38.7304 70.7123 38.6583 70.987 38.6139L71.4921 38.5417L71.5504 36.8794C71.6364 34.5093 71.9834 33.1078 73.0102 30.8654C73.7318 29.2752 74.0509 27.8876 73.8927 26.8469C73.8344 26.4001 73.8067 26.3696 73.1989 26.1087C72.086 25.6668 70.927 25.3512 69.7437 25.1679C68.6031 25.0097 65.2479 25.0957 63.9907 25.3427C63.4689 25.4288 62.517 25.6314 61.8815 25.7896C60.3052 26.1503 59.4671 26.1087 58.2682 25.587C57.0831 25.0652 56.3311 24.5907 55.6234 23.9246C55.06 23.4029 55.0017 23.3751 54.8574 23.5499C54.7409 23.6804 54.6826 24.0717 54.6409 24.9098C54.5965 26.1975 54.3939 26.8747 53.8306 27.7849C53.7054 27.9722 53.5985 28.1711 53.5114 28.3788C53.5114 28.4232 53.9444 28.9283 54.48 29.4778C56.3311 31.4011 57.2413 31.8923 58.7011 31.7896C59.1784 31.7452 59.5115 31.7618 59.5115 31.8174C59.5115 31.9339 58.5707 32.6693 58.1821 32.8719C57.9934 32.9718 57.9518 33.0745 57.9795 33.291L58.2099 34.809C58.3403 35.6777 58.4402 36.0801 58.5707 36.1967C58.9176 36.4853 60.7104 37.4122 61.8371 37.8729C63.3108 38.4668 64.1211 38.6833 65.2479 38.7832C66.6355 38.8997 66.6632 38.8997 68.6586 38.7832V38.7887ZM56.7057 37.1985C56.7335 37.1541 56.6336 36.316 56.4448 35.3474C56.2145 34.032 56.0841 33.5546 55.9398 33.4242C55.8398 33.3382 55.3042 32.9607 54.7686 32.5722C54.0649 32.0662 53.398 31.5106 52.7732 30.9099L51.7769 29.9274L51.2413 30.2022L50.6779 30.5047C50.7253 30.7305 50.8028 30.9489 50.9083 31.1541C51.0664 31.501 51.3856 32.353 51.6159 33.0468C52.2237 34.8535 52.7011 35.7221 53.9 37.2957L54.3468 37.8896L55.1988 38.02C55.6761 38.0921 56.1534 38.1948 56.2839 38.2365C56.4865 38.3225 56.5142 38.2809 56.5725 37.8174C56.6003 37.6148 56.6447 37.3983 56.7029 37.1957L56.7057 37.1985ZM75.0195 19.2178C75.7577 19.1457 75.8881 19.043 75.5689 18.7127C75.3664 18.5101 74.9029 18.4962 74.5282 18.6683C74.2812 18.7849 74.2257 18.7543 73.8344 18.3353C73.4292 17.8885 73.4015 17.8718 72.8936 17.9301C72.4302 17.9884 72.358 17.9745 72.2997 17.7858C72.1192 17.4758 71.8949 17.1935 71.6337 16.9477C71.3054 16.5747 70.895 16.283 70.4348 16.0957C69.5384 15.7488 69.0333 15.7932 68.1785 16.2705C65.7058 17.6137 65.8085 17.5998 63.4218 16.9921C61.196 16.4287 59.5337 15.8515 58.9981 15.4879C58.5512 15.1854 57.5966 14.8524 56.8001 14.7497C56.2062 14.6637 55.8315 14.7941 55.2681 15.2548L54.9656 15.5018L55.2404 15.9791C55.6151 16.6452 55.5734 16.6868 55.0101 16.1956C54.4023 15.6905 53.6807 15.3436 53.2173 15.3269C52.8842 15.3269 51.9018 15.7599 51.7852 15.9486C51.7408 16.0069 52.0461 16.079 52.4513 16.1068C52.8703 16.1512 53.4476 16.2955 53.8389 16.4537C54.8519 16.8866 55.3708 17.0309 56.295 17.1197C57.3079 17.2196 59.1424 17.1059 59.3588 16.931C59.4754 16.8311 59.7918 16.8145 60.4578 16.8727C61.3403 16.931 61.7011 17.0171 63.7964 17.5804C65.012 17.9135 65.864 17.8829 67.3099 17.4944C67.9759 17.3057 68.814 17.1197 69.1609 17.0753C69.7548 17.0171 69.8686 17.0476 70.7956 17.4666C72.2692 18.1327 73.0518 18.5518 73.4847 18.9403C73.9177 19.3149 73.976 19.3149 75.0167 19.2289L75.0195 19.2178ZM66.7798 16.6896L67.6623 16.2261L67.6346 15.3297C67.6207 14.7081 67.5902 14.1003 67.5624 13.4953L67.4903 12.5711L66.6077 13.2511C66.086 13.6562 65.5809 13.9587 65.3644 14.0032C64.7289 14.1197 61.5929 14.0032 61.3015 13.845C60.9133 13.5582 60.5503 13.2388 60.2164 12.8903L59.406 12.066L59.3921 12.5573C59.3921 12.8181 59.3644 13.2649 59.3061 13.5397C59.2339 14.0614 59.2339 14.0753 59.7973 14.783C60.0998 15.1743 60.3468 15.5212 60.3468 15.5628C60.3468 15.8376 64.5235 17.1392 65.4643 17.153C65.7668 17.153 66.1443 17.0226 66.7798 16.6896ZM65.1036 13.4065C66.1443 13.2039 66.6494 12.4518 67.0407 10.5452C67.4459 8.49155 67.6484 5.2695 67.4597 3.89577C67.2849 2.65246 65.8973 2.10297 63.2525 2.189C61.604 2.24728 60.9241 2.40547 60.3607 2.88281C60.0138 3.17143 60.0138 3.20196 59.8556 4.57292C59.567 7.20384 59.9999 10.9476 60.752 12.3491C61.1128 13.029 61.4319 13.2733 62.0952 13.3898C62.8473 13.5203 64.4514 13.5203 65.1008 13.4037L65.1036 13.4065Z" fill="white"/>
</g>
<defs>
<clipPath id="clip0_343_1672">
<rect width="88.8073" height="88.8073" fill="white" transform="translate(0.260742 0.831787)"/>
</clipPath>
</defs>
</svg>
