<svg width="84" height="84" viewBox="0 0 84 84" fill="none" xmlns="http://www.w3.org/2000/svg">
<path d="M75.8978 13.4998L60.9626 6.30935C60.1192 5.90268 59.1701 5.76848 58.247 5.92535C57.3239 6.08222 56.4724 6.52239 55.8106 7.18484L6.92037 51.7572C6.32718 52.2955 5.97211 53.0473 5.93325 53.8474C5.89439 54.6474 6.17493 55.4301 6.71315 56.0233C6.77791 56.0933 6.84266 56.1606 6.9126 56.2228L10.9041 59.8491C11.4257 60.3238 12.0971 60.6008 12.8016 60.632C13.5062 60.6633 14.1994 60.4467 14.7609 60.02L73.6495 15.3647C74.0943 15.0272 74.6244 14.8205 75.1803 14.768C75.7362 14.7154 76.2957 14.8191 76.7959 15.0673C77.2961 15.3155 77.717 15.6984 78.0114 16.1729C78.3058 16.6473 78.4618 17.1945 78.4621 17.7529V17.5794C78.462 16.7269 78.2213 15.8918 77.7677 15.1701C77.314 14.4484 76.6659 13.8694 75.8978 13.4998Z" fill="#0065A9"/>
<path d="M75.8978 70.3291L60.9626 77.5221C60.1189 77.9276 59.1701 78.0612 58.2473 77.9044C57.3244 77.7476 56.473 77.3081 55.8106 76.6466L6.92037 32.0716C6.32718 31.5334 5.97211 30.7816 5.93325 29.9815C5.89439 29.1815 6.17493 28.3988 6.71315 27.8056C6.77791 27.7356 6.84266 27.6683 6.9126 27.6061L10.9041 23.9798C11.4262 23.5031 12.0991 23.2249 12.8054 23.1936C13.5117 23.1624 14.2066 23.3801 14.7687 23.8089L73.6495 68.4641C74.0943 68.8017 74.6244 69.0083 75.1803 69.0609C75.7362 69.1134 76.2957 69.0098 76.7959 68.7616C77.2961 68.5134 77.717 68.1305 78.0114 67.656C78.3058 67.1815 78.4618 66.6343 78.4621 66.076V66.2625C78.4593 67.1126 78.2173 67.9449 77.7639 68.664C77.3104 69.3831 76.6637 69.9602 75.8978 70.3291Z" fill="#007ACC"/>
<path d="M60.9631 77.5218C60.1194 77.9273 59.1706 78.0609 58.2478 77.9041C57.3249 77.7472 56.4735 77.3077 55.8111 76.6463C56.1831 77.0134 56.6552 77.2626 57.1681 77.3626C57.6811 77.4626 58.2122 77.409 58.6948 77.2084C59.1774 77.0079 59.5901 76.6694 59.8812 76.2354C60.1723 75.8013 60.3288 75.291 60.3311 74.7684V9.05985C60.3315 8.53478 60.1761 8.0214 59.8845 7.58473C59.5929 7.14807 59.1783 6.80777 58.6932 6.60695C58.208 6.40612 57.6742 6.35381 57.1593 6.45663C56.6444 6.55945 56.1716 6.81278 55.8008 7.18453C56.4626 6.52232 57.3139 6.08212 58.2369 5.92482C59.1598 5.76751 60.1089 5.90087 60.9527 6.30645L75.8853 13.4865C76.6558 13.8543 77.3067 14.4325 77.7627 15.1544C78.2187 15.8762 78.4613 16.7123 78.4626 17.5661V66.2621C78.4628 67.1153 78.2219 67.9511 77.7678 68.6734C77.3136 69.3956 76.6647 69.9748 75.8957 70.3443L60.9631 77.5218Z" fill="#1F9CF0"/>
</svg>
