<svg width="66" height="66" viewBox="0 0 66 66" fill="none" xmlns="http://www.w3.org/2000/svg">
<g clip-path="url(#clip0_343_1640)">
<path fill-rule="evenodd" clip-rule="evenodd" d="M32.8312 0.351807C14.8404 0.351807 0.268555 14.9236 0.268555 32.9145C0.268555 47.3235 9.58962 59.4938 22.5333 63.8083C24.1614 64.0933 24.772 63.1164 24.772 62.2616C24.772 61.4883 24.7313 58.9239 24.7313 56.1968C16.5499 57.7028 14.4333 54.2024 13.7821 52.3707C13.4157 51.4345 11.8283 48.5446 10.4444 47.7712C9.3047 47.1607 7.67657 45.6546 10.4037 45.6139C12.968 45.5732 14.7997 47.9747 15.4102 48.9516C18.3408 53.8767 23.0217 52.4928 24.8941 51.638C25.179 49.5215 26.0338 48.0969 26.97 47.2828C19.7248 46.4687 12.1539 43.6602 12.1539 31.205C12.1539 27.6638 13.4157 24.7331 15.4916 22.4537C15.166 21.6397 14.0263 18.302 15.8172 13.8246C15.8172 13.8246 18.5444 12.9698 24.772 17.1623C27.377 16.4296 30.1448 16.0633 32.9127 16.0633C35.6805 16.0633 38.4483 16.4296 41.0533 17.1623C47.2809 12.9291 50.0081 13.8246 50.0081 13.8246C51.799 18.302 50.6593 21.6397 50.3337 22.4537C52.4096 24.7331 53.6714 27.6231 53.6714 31.205C53.6714 43.7009 46.0598 46.4687 38.8146 47.2828C39.995 48.3004 41.0126 50.2541 41.0126 53.3069C41.0126 57.6621 40.9719 61.1626 40.9719 62.2616C40.9719 63.1164 41.5825 64.134 43.2106 63.8083C49.6748 61.6259 55.2918 57.4713 59.2712 51.9294C63.2506 46.3874 65.392 39.7372 65.3939 32.9145C65.3939 14.9236 50.8221 0.351807 32.8312 0.351807Z" fill="white"/>
</g>
<defs>
<clipPath id="clip0_343_1640">
<rect width="65.1254" height="65.1254" fill="white" transform="translate(0.268555 0.351807)"/>
</clipPath>
</defs>
</svg>
