<svg width="89" height="89" viewBox="0 0 89 89" fill="none" xmlns="http://www.w3.org/2000/svg">
<path d="M16.4129 75.7805L10.1797 6.4248H78.6945L72.4531 75.7695L44.3955 83.4837L16.4129 75.7805Z" fill="#1572B6"/>
<path d="M44.4375 77.5887L67.1111 71.3552L72.4451 12.0969H44.4375V77.5887Z" fill="#33A9DC"/>
<path d="M44.4375 37.2235H55.7882L56.5708 28.5131H44.4375V20.0063H65.9455L65.7402 22.2878L63.6338 45.7302H44.4375V37.2235Z" fill="white"/>
<path d="M44.491 59.3146L44.4522 59.3256L34.8998 56.7661L34.2893 49.9822H25.6777L26.8794 63.3381L44.4494 68.1763L44.491 68.1653V59.3146Z" fill="#EBEBEB"/>
<path d="M55.0586 45.3696L54.0262 56.7606L44.46 59.32V68.1708L62.0438 63.3381L62.1743 61.9015L63.6645 45.3696H55.0586Z" fill="white"/>
<path d="M44.4681 20.0063V28.5131H23.7482L23.5762 26.6004L23.1849 22.2878L22.9795 20.0063H44.4681ZM44.4376 37.2235V45.7302H35.0046L34.8325 43.8175L34.444 39.505L34.2386 37.2235H44.4376Z" fill="#EBEBEB"/>
</svg>
