<svg width="90" height="90" viewBox="0 0 90 90" fill="none" xmlns="http://www.w3.org/2000/svg">
<path d="M6.35742 6.03052H84.0638V83.7369H6.35742V6.03052Z" fill="#F5DE19"/>
<path d="M58.5567 66.7388C59.2188 68.0836 60.2474 69.214 61.5241 69.9996C62.8007 70.7853 64.2734 71.1941 65.7723 71.1791C68.7973 71.1791 70.7316 69.6666 70.7316 67.5713C70.7316 65.0736 68.7446 64.18 65.4143 62.723L63.5882 61.9404C58.3153 59.6952 54.8185 56.8839 54.8185 50.9394C54.8185 45.4639 58.9813 41.2927 65.5114 41.2927C67.6253 41.14 69.7374 41.6131 71.5842 42.653C73.431 43.6929 74.9307 45.2534 75.8963 47.1401L70.1877 50.7895C69.8159 49.854 69.1685 49.0537 68.3313 48.4946C67.4942 47.9355 66.5069 47.6441 65.5003 47.6591C65.0612 47.6151 64.6177 47.6631 64.1981 47.8C63.7785 47.9369 63.3921 48.1597 63.0634 48.4542C62.7347 48.7487 62.4709 49.1085 62.2889 49.5105C62.1069 49.9126 62.0107 50.3482 62.0063 50.7895C62.0063 52.9792 63.3634 53.8673 66.4966 55.2299L68.3227 56.0125C74.5281 58.6739 78.036 61.3853 78.036 67.4825C78.036 74.057 72.8713 77.6593 65.936 77.6593C63.2338 77.8315 60.5395 77.2179 58.1782 75.8928C55.8169 74.5676 53.8896 72.5874 52.6288 70.1911L58.5567 66.7388ZM32.7609 67.3715C33.9071 69.4058 34.9506 71.1264 37.4594 71.1264C39.8572 71.1264 41.3725 70.1884 41.3725 66.5389V41.709H48.6741V66.6361C48.6741 74.1958 44.2337 77.6371 37.7702 77.6371C35.4855 77.762 33.2165 77.1926 31.2615 76.0038C29.3064 74.815 27.7568 73.0625 26.8164 70.9765L32.7609 67.3715Z" fill="black"/>
</svg>
