<svg width="84" height="76" viewBox="0 0 84 76" fill="none" xmlns="http://www.w3.org/2000/svg">
<g clip-path="url(#clip0_343_1644)">
<path d="M68.8177 24.8624C67.9278 24.5559 67.0303 24.272 66.1262 24.011C66.2781 23.3881 66.4179 22.7728 66.542 22.1682C68.5796 12.2411 67.2476 4.24357 62.6978 1.61041C58.3355 -0.913916 51.2013 1.71826 43.9963 8.0117C43.2862 8.63305 42.5919 9.27231 41.914 9.92887C41.4601 9.49228 40.9983 9.06416 40.5287 8.64474C32.9774 1.91562 25.4085 -0.920473 20.8636 1.72023C16.5052 4.25242 15.2147 11.7706 17.0491 21.1788C17.2316 22.1106 17.4377 23.0376 17.6671 23.9589C16.5957 24.2644 15.5619 24.5896 14.5725 24.9358C5.71925 28.0338 0.0654297 32.8887 0.0654297 37.9246C0.0654297 43.1257 6.13506 48.3425 15.3561 51.5058C16.1037 51.7612 16.8575 51.9978 17.6168 52.2155C17.3702 53.2078 17.1513 54.2068 16.9603 55.2113C15.2114 64.4562 16.5771 71.7967 20.9237 74.3129C25.4131 76.9113 32.948 74.2407 40.2847 67.8037C40.8796 67.2804 41.4614 66.7423 42.0296 66.1898C42.7637 66.9007 43.5175 67.591 44.2899 68.2597C51.397 74.3974 58.4158 76.8759 62.7582 74.3529C67.2433 71.7469 68.7011 63.8612 66.8085 54.2671C66.6595 53.5155 66.4923 52.7676 66.3072 52.0241C66.8363 51.8667 67.3557 51.7048 67.862 51.5363C77.4482 48.3487 83.6854 43.1952 83.6854 37.9246C83.6854 32.8704 77.849 27.9827 68.8177 24.8624ZM66.7386 48.1333C66.2813 48.2851 65.8123 48.4317 65.3341 48.5743C64.2758 45.2117 62.8477 41.6363 61.0998 37.942C62.7677 34.3358 64.1409 30.806 65.1695 27.4654C66.0249 27.7139 66.8549 27.9758 67.6552 28.2522C75.3933 30.926 80.1133 34.8787 80.1133 37.9246C80.1133 41.1688 75.0157 45.3805 66.7386 48.1333ZM63.3043 54.9634C64.1412 59.2056 64.2604 63.0413 63.7061 66.04C63.2083 68.7344 62.2068 70.5306 60.9682 71.2502C58.3332 72.7812 52.6977 70.7913 46.6199 65.542C45.9014 64.9202 45.2002 64.2785 44.5173 63.6176C46.8737 61.0313 49.2284 58.0248 51.5267 54.6854C55.5692 54.3255 59.3883 53.7367 62.8516 52.9332C63.0185 53.6062 63.1694 54.2832 63.3043 54.9634ZM28.5733 70.9857C25.9987 71.898 23.9481 71.9243 22.7085 71.207C20.0709 69.6802 18.9743 63.7861 20.47 55.8801C20.6478 54.9458 20.8514 54.0167 21.0805 53.0938C24.5057 53.8544 28.297 54.4012 32.3489 54.731C34.6629 57.9985 37.0856 61.0018 39.5272 63.6317C39.0083 64.1356 38.4771 64.6267 37.9342 65.1043C34.6897 67.9506 31.4386 69.97 28.5733 70.9857ZM16.5118 48.1133C12.4343 46.7145 9.06699 44.8966 6.75895 42.9129C4.68478 41.1305 3.6379 39.3605 3.6379 37.9246C3.6379 34.8685 8.17722 30.9706 15.7484 28.3213C16.6673 28.0001 17.6289 27.6968 18.6268 27.4123C19.6733 30.8283 21.0459 34.4 22.7023 38.0118C21.0243 41.677 19.6322 45.3058 18.5755 48.7621C17.8824 48.5629 17.1943 48.3465 16.5118 48.1133ZM20.5549 20.49C18.9835 12.4296 20.0271 6.34925 22.6536 4.82318C25.451 3.19778 31.6369 5.51524 38.1569 11.3258C38.5821 11.7055 39.0004 12.093 39.4116 12.4879C36.982 15.1064 34.5815 18.0873 32.2882 21.3355C28.3554 21.7014 24.5909 22.2889 21.1298 23.076C20.9166 22.2191 20.7249 21.357 20.5549 20.4904V20.49ZM56.6249 29.4294C55.8074 28.0122 54.9595 26.6128 54.082 25.2322C56.75 25.5708 59.3063 26.0203 61.7067 26.5697C60.9862 28.8882 60.0879 31.3118 59.0306 33.7968C58.2577 32.3251 57.4557 30.869 56.6249 29.4294ZM41.9156 15.0503C43.5632 16.8419 45.2134 18.842 46.8364 21.0123C43.5439 20.8562 40.2459 20.8556 36.9533 21.0103C38.578 18.8601 40.2422 16.8626 41.9156 15.0503ZM27.1119 29.454C26.2915 30.882 25.5044 32.329 24.7513 33.7939C23.7113 31.3177 22.8212 28.8829 22.0944 26.5317C24.4802 25.996 27.0244 25.558 29.6754 25.2256C28.788 26.6146 27.9333 28.0244 27.1119 29.4537V29.454ZM29.7515 50.8786C27.0126 50.5718 24.4302 50.1564 22.0451 49.6352C22.7833 47.242 23.693 44.7553 24.7555 42.2261C25.5117 43.692 26.302 45.1399 27.126 46.5686C27.9733 48.0373 28.8506 49.4758 29.7515 50.8786ZM42.0142 61.0513C40.3209 59.2181 38.6322 57.1898 36.983 55.0084C38.5842 55.0713 40.2164 55.1034 41.8754 55.1034C43.5798 55.1034 45.2646 55.0651 46.923 54.991C45.2947 57.2117 43.6507 59.243 42.0142 61.0513ZM59.0642 42.0969C60.182 44.654 61.124 47.1275 61.872 49.4798C59.4477 50.0351 56.83 50.4823 54.0719 50.8144C54.9557 49.4081 55.8115 47.9844 56.6389 46.544C57.4801 45.0799 58.2888 43.5972 59.0642 42.0969ZM53.5447 44.7527C52.278 46.9611 50.9401 49.1276 49.5332 51.2488C46.9846 51.4299 44.4304 51.5199 41.8754 51.5186C39.2731 51.5186 36.7419 51.4373 34.3045 51.2786C32.8609 49.1624 31.4975 46.9921 30.2173 44.7724H30.2176C28.9435 42.5645 27.7533 40.3088 26.6497 38.0102C27.7505 35.711 28.937 33.4543 30.2068 31.2446L30.2065 31.245C31.4758 29.0348 32.8283 26.8738 34.2611 24.7666C36.7478 24.5778 39.2979 24.4795 41.8751 24.4795H41.8754C44.4644 24.4795 47.0177 24.5788 49.5038 24.7689C50.9221 26.8729 52.2659 29.0265 53.5329 31.2256C54.8069 33.4304 56.0092 35.6761 57.1377 37.9593C56.0208 40.2659 54.8223 42.5318 53.5447 44.7527ZM60.9137 4.71631C63.7136 6.33712 64.8026 12.8731 63.0434 21.4444C62.931 21.9912 62.8049 22.5482 62.6677 23.113C59.1981 22.3092 55.431 21.7116 51.4868 21.3401C49.1892 18.0562 46.8083 15.0706 44.4183 12.486C45.0447 11.88 45.686 11.2897 46.3416 10.7157C52.5151 5.32378 58.2849 3.19483 60.9137 4.71631ZM41.8754 30.4303C45.9993 30.4303 49.3424 33.7857 49.3424 37.9246C49.3424 42.0635 45.9993 45.4189 41.8754 45.4189C37.7516 45.4189 34.4084 42.0635 34.4084 37.9246C34.4084 33.7857 37.7516 30.4303 41.8754 30.4303Z" fill="#00D8FF"/>
</g>
<defs>
<clipPath id="clip0_343_1644">
<rect width="83.6269" height="74.7462" fill="white" transform="translate(0.0615234 0.6604)"/>
</clipPath>
</defs>
</svg>
