<svg width="79" height="75" viewBox="0 0 79 75" fill="none" xmlns="http://www.w3.org/2000/svg">
<path d="M54.5562 51.9609C57.4215 51.6642 59.5953 49.1941 59.4964 46.2297C59.3978 43.2655 56.9274 40.8939 53.9632 40.8939H53.7658C50.7024 40.9928 48.3312 43.5618 48.43 46.6249C48.5289 48.1071 49.1216 49.3916 50.0109 50.2809C46.6515 56.9014 41.5135 61.743 33.8066 65.7943C28.5697 68.561 23.1354 69.5492 17.7011 68.8576C13.2547 68.2647 9.79643 66.2886 7.62235 63.0275C4.46071 58.1859 4.16438 52.9487 6.83224 47.7119C8.70969 43.957 11.6736 41.1903 13.551 39.8069C13.1558 38.5224 12.5629 36.3486 12.2665 34.7678C-2.06062 45.1429 -0.578377 59.174 3.76918 65.7943C7.02969 70.7351 13.6499 73.7981 20.9616 73.7981C22.9377 73.7981 24.9137 73.6004 26.89 73.1066C39.5375 70.6362 49.1219 63.1264 54.5562 51.9609ZM71.9464 39.7083C64.4369 30.914 53.3706 26.0724 40.7231 26.0724H39.1423C38.253 24.2938 36.3755 23.1079 34.3006 23.1079H34.1029C31.0401 23.2068 28.6689 25.7758 28.7675 28.8391C28.8664 31.8033 31.3365 34.1748 34.3006 34.1748H34.4981C36.6719 34.076 38.5493 32.6926 39.3397 30.8151H41.1183C48.6278 30.8151 55.7418 32.9889 62.1646 37.2379C67.1048 40.4987 70.6619 44.7477 72.6379 49.8857C74.3176 54.0358 74.2188 58.087 72.4402 61.5456C69.6737 66.7824 65.0299 69.648 58.9037 69.648C54.9514 69.648 51.1968 68.4621 49.2205 67.5728C48.1337 68.561 46.1574 70.1418 44.774 71.1303C49.023 73.1063 53.3706 74.1933 57.5204 74.1933C67.0059 74.1933 74.0213 68.9562 76.6892 63.7194C79.5545 57.9881 79.3567 48.1071 71.9464 39.7083ZM21.7521 53.6403C21.8509 56.6048 24.321 58.976 27.2852 58.976H27.483C30.546 58.8774 32.9173 56.3081 32.8184 53.2451C32.7198 50.2806 30.2494 47.9093 27.2852 47.9093H27.0878C26.89 47.9093 26.5934 47.9093 26.3962 48.0079C22.345 41.2888 20.6653 33.9771 21.2583 26.0721C21.6532 20.1434 23.6295 15.0051 27.0878 10.7562C29.9531 7.10013 35.4863 5.32156 39.2412 5.22299C49.7145 5.02523 54.1607 18.0682 54.4573 23.3053C55.7418 23.6017 57.9156 24.2935 59.3978 24.7876C58.2119 8.78043 48.3312 0.480225 38.846 0.480225C29.9531 0.480225 21.7521 6.90299 18.4912 16.3888C13.9462 29.0366 16.9104 41.1903 22.4436 50.775C21.9498 51.4665 21.6532 52.5535 21.7521 53.6406V53.6403Z" fill="#764ABC"/>
</svg>
