<svg width="66" height="65" viewBox="0 0 66 65" fill="none" xmlns="http://www.w3.org/2000/svg">
<g clip-path="url(#clip0_343_1648)">
<path d="M0.0488281 56.0834C0.0488281 60.6688 3.80855 64.3853 8.44619 64.3853H56.7766C61.415 64.3853 65.1742 60.6683 65.1742 56.0834V8.30219C65.1742 3.71649 61.4145 0 56.7769 0H8.44644C3.80804 0 0.0488281 3.71699 0.0488281 8.30193V56.0831V56.0834Z" fill="#563D7C"/>
<path d="M27.0553 28.4801V19.3623H35.1734C35.9467 19.3623 36.6921 19.4259 37.41 19.5534C38.1279 19.6807 38.7632 19.9081 39.3155 20.2358C39.8675 20.5635 40.3094 21.0184 40.6409 21.6007C40.9721 22.1832 41.1379 22.9294 41.1379 23.8391C41.1379 25.4771 40.6409 26.6602 39.6467 27.3881C38.6528 28.1162 37.3826 28.4801 35.8361 28.4801H27.0553ZM18.3848 12.7012V51.6845H37.493C39.2602 51.6845 40.9815 51.4662 42.6567 51.0293C44.3319 50.5924 45.8229 49.9192 47.13 49.0092C48.4368 48.0993 49.477 46.9252 50.2502 45.4876C51.0235 44.0498 51.41 42.3481 51.41 40.3826C51.41 37.9437 50.8116 35.86 49.6152 34.1312C48.4185 32.4021 46.6052 31.1918 44.1752 30.5002C45.9425 29.6632 47.2773 28.5893 48.1794 27.2789C49.0812 25.9686 49.5322 24.3308 49.5322 22.365C49.5322 20.5451 49.2285 19.0165 48.621 17.7788C48.0135 16.5414 47.1575 15.5495 46.0529 14.8033C44.9485 14.057 43.6231 13.5201 42.0767 13.1926C40.5304 12.8649 38.8184 12.7012 36.9407 12.7012H18.3848ZM27.0553 45.0234V34.3221H36.4988C38.3765 34.3221 39.8861 34.7496 41.0275 35.6052C42.1688 36.4606 42.7396 37.8892 42.7396 39.8911C42.7396 40.9105 42.5646 41.7475 42.2148 42.4027C41.865 43.0578 41.3957 43.5767 40.8065 43.9587C40.2175 44.341 39.5363 44.6139 38.7632 44.7779C37.9898 44.9414 37.1801 45.0234 36.3332 45.0234H27.0553Z" fill="white"/>
</g>
<defs>
<clipPath id="clip0_343_1648">
<rect width="65.1254" height="64.3853" fill="white" transform="translate(0.0488281)"/>
</clipPath>
</defs>
</svg>
