<svg width="97" height="97" viewBox="0 0 97 97" fill="none" xmlns="http://www.w3.org/2000/svg">
<path d="M27.2669 41.5579C30.0946 30.2473 37.1637 24.592 48.4743 24.592C65.4402 24.592 67.561 37.3165 76.0439 39.4372C81.6992 40.851 86.6476 38.7303 90.8891 33.075C88.0614 44.3856 80.9923 50.0409 69.6817 50.0409C52.7158 50.0409 50.5951 37.3165 42.1121 35.1957C36.4568 33.7819 31.5084 35.9026 27.2669 41.5579ZM6.05957 67.0068C8.88722 55.6962 15.9563 50.0409 27.2669 50.0409C44.2328 50.0409 46.3536 62.7653 54.8365 64.8861C60.4918 66.2999 65.4402 64.1791 69.6817 58.5238C66.8541 69.8344 59.7849 75.4897 48.4743 75.4897C31.5084 75.4897 29.3877 62.7653 20.9047 60.6446C15.2494 59.2308 10.301 61.3515 6.05957 67.0068Z" fill="#44A8B3"/>
</svg>
