<svg width="87" height="65" viewBox="0 0 87 65" fill="none" xmlns="http://www.w3.org/2000/svg">
<g clip-path="url(#clip0_343_1646)">
<path d="M74.7589 37.3931C71.7467 37.4085 69.1286 38.1278 66.9367 39.1912C66.132 37.6117 65.3278 36.2047 65.1861 35.1725C65.0281 33.9686 64.8391 33.2335 65.0281 31.7949C65.2175 30.3563 66.0691 28.3077 66.0532 28.1515C66.0377 27.9952 65.8638 27.2601 64.1291 27.2447C62.3944 27.2289 60.8962 27.573 60.7226 28.0264C60.5491 28.4798 60.218 29.5119 59.9972 30.575C59.6975 32.139 56.5278 37.7211 54.7143 40.6452C54.1305 39.5041 53.6259 38.5031 53.5153 37.7056C53.3577 36.5018 53.1683 35.7667 53.3577 34.3281C53.5471 32.8895 54.3987 30.8412 54.3828 30.6846C54.3669 30.5284 54.1934 29.7933 52.4587 29.7779C50.7237 29.7621 49.2254 30.1062 49.0522 30.5595C48.8787 31.0133 48.6893 32.0763 48.3268 33.1085C47.9639 34.1406 43.7531 43.4604 42.6492 45.8682C42.203 46.8427 41.7351 47.8073 41.2456 48.7611C41.2456 48.7611 41.2297 48.8081 41.1823 48.8862C41.0285 49.1853 40.8709 49.4824 40.7095 49.7776V49.793C40.4728 50.2155 40.2204 50.6062 40.0943 50.6062C39.9996 50.6062 39.8261 49.4804 40.1257 47.9479C40.7565 44.7112 42.2548 39.6761 42.2392 39.5041C42.2392 39.4102 42.523 38.5346 41.2615 38.0809C40.031 37.6275 39.5897 38.378 39.4791 38.378C39.3688 38.378 39.2897 38.6439 39.2897 38.6439C39.2897 38.6439 40.6622 32.9834 36.6719 32.9834C34.1803 32.9834 30.742 35.6886 29.0387 38.1278C27.1025 39.1726 25.1679 40.2203 23.235 41.271C22.3049 41.7871 21.3427 42.3032 20.4437 42.7877C20.3805 42.7253 20.3176 42.6469 20.2543 42.5845C15.4283 37.4712 6.50219 33.859 6.88065 26.9945C7.0227 24.4926 7.88988 17.9249 24.0237 9.9502C37.3027 3.4607 47.8695 5.2588 49.6989 9.24633C52.3167 14.9384 44.0372 25.509 30.3162 27.0412C25.0803 27.62 22.336 25.6183 21.6423 24.8678C20.9169 24.0858 20.8063 24.0389 20.5381 24.1955C20.0967 24.4302 20.3805 25.1337 20.5381 25.5402C20.9483 26.6032 22.6357 28.4798 25.4902 29.4026C28.0136 30.2155 34.1485 30.6692 41.5767 27.8232C49.888 24.6331 56.3857 15.767 54.4775 8.33957C52.569 0.802459 39.9522 -1.68375 28.0136 2.52242C20.9169 5.02473 13.2205 8.96498 7.68492 14.094C1.10835 20.1922 0.067327 25.4932 0.493139 27.7138C2.02322 35.5947 12.9841 40.7237 17.3683 44.5234C17.1475 44.6485 16.9422 44.7582 16.769 44.8521C14.5767 45.9309 6.21809 50.2621 4.13638 54.8439C1.77091 60.0353 4.51518 63.7572 6.32868 64.2572C11.9589 65.8055 17.7468 63.0222 20.8536 58.4246C23.9605 53.8275 23.582 47.854 22.147 45.1177C22.1311 45.0865 22.1155 45.055 22.0837 45.0238C22.6516 44.6955 23.235 44.3514 23.8029 44.0231C24.8465 43.4114 25.9035 42.8222 26.9729 42.2559C26.4365 43.7102 26.0422 45.446 25.8531 47.9479C25.6164 50.8879 26.8305 54.703 28.4235 56.204C29.1334 56.8613 29.9692 56.8767 30.5056 56.8767C32.3664 56.8767 33.2025 55.3442 34.1329 53.5303C35.2683 51.3101 36.2934 48.7299 36.2934 48.7299C36.2934 48.7299 35.016 55.704 38.4857 55.704C39.7473 55.704 41.0247 54.0776 41.5926 53.249V53.2644C41.5926 53.2644 41.624 53.2175 41.6873 53.1082C41.8134 52.9049 41.8922 52.7795 41.8922 52.7795V52.7487C42.3969 51.8728 43.5326 49.8869 45.2199 46.5875C47.3963 42.3343 49.4939 37.0179 49.4939 37.0179C49.4939 37.0179 49.6833 38.3156 50.3297 40.4735C50.7085 41.7401 51.4965 43.1318 52.1276 44.4765C51.623 45.1804 51.3074 45.571 51.3074 45.571L51.3233 45.5868C50.9131 46.1183 50.4717 46.6968 49.9827 47.2602C48.2635 49.2927 46.2136 51.6229 45.9295 52.295C45.5981 53.0924 45.6772 53.6712 46.3083 54.1403C46.7656 54.4844 47.5854 54.531 48.4215 54.4844C49.9671 54.3747 51.0551 53.9995 51.5912 53.7651C52.4273 53.468 53.4051 53.0143 54.3196 52.3419C56.0073 51.1065 57.0321 49.3396 56.9377 47.01C56.8903 45.7276 56.4645 44.4453 55.944 43.2411C56.102 43.0225 56.2437 42.8035 56.4016 42.5845C59.0668 38.7221 61.1329 34.4844 61.1329 34.4844C61.1329 34.4844 61.3223 35.7821 61.9686 37.9404C62.2842 39.0349 62.9309 40.2234 63.4984 41.3803C60.9909 43.3977 59.4452 45.7431 58.8932 47.2756C57.8999 50.1216 58.6724 51.4036 60.1392 51.7007C60.8015 51.8416 61.7478 51.5287 62.4418 51.2316C63.3249 50.9502 64.3659 50.4657 65.3596 49.746C67.0473 48.511 68.6714 46.7907 68.5767 44.4611C68.5293 43.3977 68.2455 42.3498 67.8512 41.3334C69.9802 40.4581 72.7245 39.9732 76.2254 40.3796C83.7327 41.2552 85.2151 45.8993 84.931 47.8544C84.6472 49.8087 83.0702 50.8721 82.55 51.2004C82.0291 51.529 81.856 51.6384 81.9033 51.8728C81.9662 52.2168 82.2185 52.2014 82.6602 52.1387C83.2754 52.0294 86.6031 50.5592 86.7448 46.9627C86.9816 42.3655 82.5655 37.3462 74.7589 37.3931ZM16.8478 56.7516C14.3559 59.4411 10.8865 60.4575 9.38817 59.5977C7.77962 58.6748 8.41039 54.703 11.4699 51.8573C13.3307 50.1216 15.728 48.5106 17.321 47.5257C17.6835 47.3068 18.22 46.9942 18.8666 46.6032C18.9769 46.5405 19.0401 46.5093 19.0401 46.5093L19.4186 46.2746C20.5381 50.3403 19.4659 53.9214 16.8478 56.7516ZM34.9846 44.5234C34.117 46.619 32.3035 51.9824 31.1996 51.6853C30.2533 51.4351 29.6695 47.3695 31.0102 43.3508C31.6883 41.3334 33.1234 38.9253 33.9594 37.9873C35.3157 36.486 36.814 35.9853 37.1765 36.5957C37.6341 37.3931 35.5206 43.2099 34.9846 44.5234ZM49.9512 51.6226C49.5883 51.8104 49.2416 51.9355 49.0837 51.8416C48.9734 51.7789 49.2416 51.5287 49.2416 51.5287C49.2416 51.5287 51.1184 49.5274 51.8594 48.6203C52.2856 48.0888 52.7898 47.4634 53.3262 46.7595V46.9627C53.3262 49.3554 50.9919 50.966 49.9509 51.6226H49.9512ZM61.4955 49.0113C61.2273 48.8235 61.2746 48.1981 62.1736 46.2434C62.5206 45.4772 63.3404 44.1951 64.7444 42.9598C64.902 43.4601 65.0126 43.945 64.9967 44.3984C64.9808 47.4164 62.8047 48.5422 61.4955 49.0113Z" fill="#CD6799"/>
</g>
<defs>
<clipPath id="clip0_343_1646">
<rect width="86.5872" height="64.3853" fill="white" transform="translate(0.253906 0.333496)"/>
</clipPath>
</defs>
</svg>
