<svg width="79" height="78" viewBox="0 0 79 78" fill="none" xmlns="http://www.w3.org/2000/svg">
<g clip-path="url(#clip0_343_1642)">
<path d="M76.9685 35.4034L43.0411 1.47787C41.0884 -0.476022 37.9195 -0.476022 35.9644 1.47787L28.9192 8.52305L37.8563 17.4602C39.9332 16.7584 42.3147 17.2292 43.9703 18.8847C45.6337 20.5509 46.1011 22.9528 45.3823 25.0363L53.9953 33.6495C56.0791 32.9317 58.4834 33.3961 60.1478 35.0631C62.4738 37.3883 62.4738 41.1567 60.1478 43.4834C57.8211 45.8103 54.0527 45.8103 51.7248 43.4834C49.9752 41.7319 49.543 39.1625 50.4287 37.007L42.3964 28.9747L42.3955 50.1124C42.9778 50.4003 43.5096 50.7806 43.9703 51.2385C46.2963 53.5636 46.2963 57.3324 43.9703 59.6609C41.6436 61.9866 37.8733 61.9866 35.55 59.6609C33.224 57.3324 33.224 53.5639 35.55 51.2388C36.1075 50.6811 36.7699 50.2395 37.4991 49.9394V28.6047C36.7688 28.3066 36.106 27.8647 35.55 27.3052C33.7877 25.5453 33.3639 22.9594 34.267 20.7955L25.457 11.9846L2.19364 35.2465C0.238838 37.2022 0.238838 40.3715 2.19364 42.3257L36.1216 76.2518C38.0749 78.206 41.2432 78.206 43.199 76.2518L76.9682 42.4832C78.9224 40.5284 78.9224 37.3573 76.9682 35.4034" fill="#DE4C36"/>
</g>
<defs>
<clipPath id="clip0_343_1642">
<rect width="77.7064" height="77.7064" fill="white" transform="translate(0.727539 0.012207)"/>
</clipPath>
</defs>
</svg>
